<svg width="50" height="51" viewBox="0 0 50 51" fill="none" xmlns="http://www.w3.org/2000/svg">
<g clip-path="url(#clip0_82_999)">
<circle cx="25" cy="25.5" r="25" fill="#D8E464"/>
<path d="M-5.67834 36.3465H35.9438C36.5259 36.3465 37.011 36.1465 37.3991 35.6465C37.7872 35.1465 38.0782 34.4465 37.9812 33.8465C37.4961 28.5465 34.3914 22.8465 29.8314 21.6465C30.1225 20.4465 30.3165 19.1465 30.3165 17.7465C30.3165 15.5465 29.5404 13.7465 27.988 12.6465C26.3387 11.4465 24.1072 11.1465 21.8757 11.9465C19.5472 12.7465 17.8008 14.3465 17.1216 16.3465C16.8306 17.1465 16.7336 18.0465 16.7336 18.8465C14.211 17.1465 11.3974 16.2465 8.58379 16.2465C2.76252 16.2465 -2.47663 19.6465 -5.48428 25.4465C-5.67833 25.7465 -5.87236 26.2465 -6.26044 27.1465C-7.13363 29.2465 -7.61874 31.5465 -7.81279 33.8465C-7.81279 34.5465 -7.61874 35.1465 -7.23066 35.6465C-6.74555 36.0465 -6.26046 36.3465 -5.67834 36.3465ZM24.4953 13.4465C25.4655 13.4465 26.2416 13.7465 26.9208 14.2465C27.891 14.9465 28.3761 16.2465 28.3761 17.7465C28.3761 19.2465 28.0851 20.7465 27.5999 22.0465C27.5029 22.3465 27.5029 22.6465 27.697 22.9465C27.891 23.2465 28.1821 23.3465 28.4731 23.4465C32.548 23.7465 35.5557 29.2465 36.0408 34.0465C36.0408 34.1465 36.0408 34.3465 35.9438 34.3465H-5.77534C-5.87236 34.2465 -5.96939 34.1465 -5.87236 34.0465C-5.77534 31.9465 -5.29024 29.8465 -4.51407 27.9465C-4.51407 27.9465 -3.93193 26.6465 -3.83491 26.3465C-1.11832 21.2465 3.44167 18.2465 8.58379 18.2465C11.7855 18.2465 14.9872 19.5465 17.5097 21.9465C18.2859 22.6465 18.868 22.3465 19.0621 22.1465C19.4501 21.8465 19.5472 21.1465 19.2561 20.7465C18.4799 19.5465 18.3829 18.1465 18.771 16.9465C19.2561 15.5465 20.6144 14.3465 22.3608 13.7465C23.234 13.5465 23.9131 13.4465 24.4953 13.4465Z" fill="white" stroke="white" stroke-width="0.5"/>
<circle cx="28.5" cy="28" r="1.5" fill="white"/>
</g>
<defs>
<clipPath id="clip0_82_999">
<rect y="0.5" width="50" height="50" rx="25" fill="white"/>
</clipPath>
</defs>
</svg>
