<svg width="51" height="51" viewBox="0 0 51 51" fill="none" xmlns="http://www.w3.org/2000/svg">
<rect x="0.333496" y="0.5" width="50" height="50" rx="24" fill="white"/>
<path d="M24.2728 44.1809C24.6418 46.4872 25.0108 49.1625 25.2414 50.5001C25.2876 50.5001 25.3337 50.5001 25.3798 50.5001C32.5292 50.5001 38.9407 47.502 43.5071 42.7049C42.8152 41.2289 41.7082 38.9226 40.6473 36.8008C38.6639 32.6957 37.4185 30.2049 37.1879 29.513L35.389 24.7621C33.6824 20.1496 31.9757 15.5831 30.2691 10.9706C29.9462 10.1403 29.6695 10.0481 29.3927 9.95583C28.7008 9.81746 28.3318 10.371 28.1935 10.9245C27.9167 12.216 27.6399 13.5536 27.3632 14.8913L26.9481 17.013C26.9019 17.1514 26.9019 17.3359 26.8558 17.4743L26.8097 17.7049C26.6713 18.3045 26.1178 18.7197 25.5182 18.7197H22.2433C18.7839 18.7197 16.7543 20.3341 16.0163 23.7012C15.9702 23.8857 15.9241 24.0241 15.878 24.1163L15.8318 24.2086C15.6473 24.716 15.14 24.9927 14.6326 24.9927H10.2507C10.0662 24.9927 9.92777 24.9927 9.74327 24.9927C9.51264 24.9927 9.23589 24.9927 8.95914 24.9927C8.77464 25.7769 8.26726 26.8378 6.74512 27.1145V27.2068L6.83737 27.6219C6.92962 27.9909 7.02187 28.406 7.11412 28.775C8.31338 33.0647 12.2802 36.109 16.7543 36.2012C17.9075 36.2012 19.0606 36.2012 20.2599 36.2012C20.8134 36.2012 21.3669 36.2012 21.9204 36.2012C22.52 36.2012 23.0735 36.6163 23.2119 37.216C23.258 37.585 23.5809 39.7529 24.2728 44.1809ZM21.1824 22.7787C21.1824 23.5628 20.5366 24.1625 19.7986 24.1625C19.0145 24.1625 18.4149 23.5167 18.4149 22.7787C18.4149 21.9946 19.0606 21.3949 19.7986 21.3949C20.5366 21.3949 21.1824 21.9946 21.1824 22.7787Z" fill="#B2E2F3"/>
<path d="M0.333496 25.5C0.333496 11.7085 11.542 0.5 25.3335 0.5C39.1711 0.5 50.3335 11.7085 50.3335 25.5C50.3335 31.1273 48.4424 36.3395 45.3058 40.5369C44.7062 39.2915 43.9221 37.6771 42.9534 35.6937C41.4774 32.6494 39.8169 29.2362 39.5863 28.6365L37.7874 23.8395C36.0807 19.2269 34.3741 14.6605 32.6674 10.048C32.4829 9.49446 31.8372 7.78782 29.8077 7.37269C27.8243 6.95756 25.9793 8.24908 25.518 10.3708C25.2412 11.7085 24.9645 13 24.6877 14.3376L24.3187 16.0904H22.0586C17.5844 16.0904 14.6324 18.2583 13.4331 22.4096H10.0198C9.83534 22.4096 9.65084 22.4096 9.46634 22.4096C9.09733 22.4096 8.77446 22.4096 8.45158 22.4096C6.19143 22.1328 4.02353 23.6089 4.02353 26.1458C4.02353 31.5424 7.85195 36.524 12.9257 38.1845C14.125 38.5996 15.4165 38.7841 16.708 38.8303C17.9073 38.8303 19.1066 38.8303 20.2597 38.8303C20.4442 38.8303 20.6287 38.8303 20.8132 38.8303C21.0438 40.1679 21.3667 42.5664 21.6896 44.5959C22.0586 47.179 22.3815 49.1162 22.566 50.3616C10.066 48.9779 0.333496 38.369 0.333496 25.5Z" fill="#B2E2F3"/>
</svg>
