<svg width="51" height="51" viewBox="0 0 51 51" fill="none" xmlns="http://www.w3.org/2000/svg">
<g clip-path="url(#clip0_82_613)">
<circle cx="25.3335" cy="25.5" r="25" fill="#80B8CE"/>
<path d="M-1.37178 70.0845C-1.68878 70.0845 -1.95296 69.8732 -2.00579 69.5561C-3.4323 63.268 -3.74929 57.5084 -2.95679 52.4885C-2.26995 48.2083 -0.790612 44.4038 1.48124 41.1805C3.43608 38.4328 5.91926 36.0549 8.77228 34.364C10.8856 33.0958 13.1575 32.2504 14.8481 32.039C15.7463 31.9333 16.3275 31.6163 16.6445 31.035C17.3842 29.5555 16.169 26.7549 15.6407 25.8037C15.4822 25.5395 15.535 25.2753 15.6935 25.064C15.7992 24.9054 18.6522 21.6821 23.0374 21.4708C25.8904 21.3122 28.6906 22.5276 31.3323 25.0111C33.6569 27.1776 35.1363 31.6162 35.4004 36.9004C35.6646 42.6072 34.4494 48.314 31.9134 52.9641C29.3774 57.6669 25.7319 61.0487 21.0825 63.0039C15.7992 65.2232 9.30061 65.4874 1.85106 63.8493C0.160384 67.1255 -0.684951 69.6618 -0.737785 69.7147C-0.843452 69.926 -1.10761 70.0845 -1.37178 70.0845ZM16.9615 25.5924C17.1728 26.0151 17.437 26.6492 17.7012 27.389C18.2823 29.1327 18.2823 30.5594 17.8068 31.6162C17.3313 32.5674 16.3803 33.1486 15.0067 33.36C13.0518 33.6242 6.97594 35.6322 2.53791 41.9731C0.371728 45.0379 -1.00195 48.6839 -1.68878 52.7527C-2.37562 57.0856 -2.21712 61.8942 -1.21328 67.1783C-0.526447 65.4345 0.688734 62.8453 2.32658 60.0976C6.1306 53.7038 10.3573 49.7407 14.9538 48.3669C15.3237 48.2612 15.6407 48.4726 15.7463 48.7896C15.852 49.1595 15.6406 49.4765 15.3236 49.5822C9.56478 51.326 5.17959 57.5084 2.43223 62.5283C9.45911 64.0607 15.535 63.7965 20.5014 61.6828C24.8866 59.8334 28.3207 56.6629 30.6982 52.2243C33.0758 47.7856 34.2909 42.343 34.0268 36.8475C33.8154 31.9861 32.3889 27.7589 30.3812 25.8566C28.0037 23.5844 25.5734 22.5276 23.0902 22.6333C20.0787 22.8975 17.754 24.7998 16.9615 25.5924Z" fill="white" stroke="white"/>
<path d="M30.8561 26.129C30.4862 26.129 30.2221 25.8648 30.2221 25.4949C30.2221 25.125 30.4862 24.8608 30.8561 24.808C36.7206 24.7023 40.1548 23.5398 40.8945 21.5318C41.4228 19.9995 40.419 18.15 39.468 16.829C38.8868 16.0364 38.3056 15.4023 37.8301 14.9267C36.8263 17.7801 34.3959 19.9466 30.6976 21.3733C27.6332 22.5358 24.833 22.7472 24.7274 22.7472C24.3575 22.7472 24.0405 22.483 24.0405 22.1659C24.0405 21.796 24.3047 21.479 24.6217 21.479C24.7274 21.479 35.2941 20.6864 36.8263 13.6057C36.8791 13.3943 37.0376 13.1829 37.2489 13.1301C37.4603 13.0773 37.7245 13.1301 37.883 13.2358C38.0943 13.4472 43.4833 18.2029 42.1096 22.0074C41.1586 24.6495 37.4603 25.9705 30.8561 26.129Z" fill="white" stroke="white"/>
<path d="M16.9075 32.4627C16.5905 32.4627 16.3263 32.2514 16.2735 31.8815C16.2206 31.5116 16.0621 31.1946 15.6923 30.9303C14.2658 29.8735 10.7788 30.1906 9.56359 30.4019C9.35225 30.4548 9.08808 30.3491 8.98241 30.1906C8.82391 30.0321 8.77109 29.7678 8.87675 29.5565C9.56359 27.5485 11.0958 26.069 13.2619 25.3292C14.847 24.8008 16.2206 24.8008 16.2735 24.8008C16.6433 24.8008 16.9075 25.1178 16.9075 25.4877C16.9075 25.8576 16.5905 26.1218 16.2206 26.1218C16.0621 26.1218 12.2581 26.0161 10.5674 28.9752C12.1524 28.8167 14.9526 28.7639 16.4848 29.8735C17.1188 30.3491 17.4886 30.9303 17.5943 31.6701C17.6471 32.04 17.383 32.3571 17.0131 32.4099C16.9603 32.4627 16.9075 32.4627 16.9075 32.4627Z" fill="white" stroke="white" stroke-width="0.5"/>
</g>
<defs>
<clipPath id="clip0_82_613">
<rect x="0.333496" y="0.5" width="50" height="50" rx="25" fill="white"/>
</clipPath>
</defs>
</svg>
