<svg width="51" height="51" viewBox="0 0 51 51" fill="none" xmlns="http://www.w3.org/2000/svg">
<path d="M25.6437 0.5C12.2336 0.5 1.31191 11.053 0.666748 24.3249C0.85108 24.2327 1.08149 24.1866 1.35799 24.1866C1.40408 24.1866 4.39947 24.4631 9.14601 23.7719C13.4778 23.1267 15.5976 20.2235 15.6898 20.0853C15.7359 20.0392 15.782 19.9931 15.828 19.947C16.4732 19.3018 16.9801 18.5645 17.5792 17.735C17.7174 17.5046 17.9018 17.3203 18.04 17.0899C20.2059 14.1406 22.8787 11.606 26.2889 9.30184C26.6114 9.11751 27.5331 8.47235 28.5469 8.84101C29.1921 9.11751 29.6529 9.71659 29.8833 10.6383L30.0216 11.1452C30.252 12.0207 30.4363 12.8963 30.5746 13.818C30.6667 14.6014 30.9432 15.0622 31.6345 15.5691C34.3534 17.5968 37.2105 20.2235 37.9018 24.2788C38.1783 25.9378 38.8234 27.0899 40.0216 28.0576C40.252 28.2419 40.4824 28.4723 40.6667 28.6567C40.805 28.6106 40.9432 28.5645 41.1276 28.5645C41.8649 28.5645 42.464 29.1636 42.464 29.9009C42.464 30.5 42.0953 30.9608 41.5423 31.1452C41.5423 31.8825 41.358 32.6659 40.9893 33.4032C39.8373 35.7535 37.8096 37.3664 34.8603 38.288C33.7082 38.6567 32.5561 38.9332 31.4041 39.2097C30.8511 39.3479 30.252 39.4862 29.699 39.6244C29.0538 40.0392 26.2428 41.9286 25.5976 44.8318C25.1368 46.9055 24.3995 48.8871 23.8004 50.3617C24.3995 50.4078 25.0446 50.4539 25.6898 50.4539C39.5147 50.4539 50.6667 39.2558 50.6667 25.477C50.6667 11.6982 39.4225 0.5 25.6437 0.5Z" fill="#BDD2FF"/>
<g clip-path="url(#clip0_82_773)">
<path d="M28.6844 37.1358C28.7765 37.0897 28.8687 37.0436 29.007 36.9975C29.6521 36.8132 30.3434 36.675 30.9885 36.4906C32.0945 36.2141 33.2005 35.9837 34.2143 35.6151C36.5185 34.8777 37.947 33.7257 38.8226 32.0206C39.053 31.6058 39.1452 31.2372 39.0991 30.8685C39.0991 30.8224 39.0991 30.7763 39.0991 30.7303C39.0991 30.592 39.1452 30.3155 38.5461 29.8547C36.8411 28.4722 35.8733 26.7671 35.4586 24.463C34.9056 21.2833 32.5093 19.1174 30.2051 17.4123C28.9609 16.4906 28.2696 15.3386 28.0853 13.8639C27.9931 13.2187 27.8088 12.4353 27.5784 11.6058V11.5137C24.583 13.5874 22.2328 15.8455 20.2973 18.4722C20.159 18.6565 20.0208 18.8869 19.8365 19.0713C19.2374 19.9008 18.6383 20.7303 17.901 21.5137C17.4401 22.1588 14.7212 25.4768 9.65212 26.168C4.583 26.9054 1.35719 26.6289 1.21895 26.6289C1.0807 26.6289 0.942448 26.5828 0.804199 26.4906C1.35719 38.1957 9.92862 47.7809 21.1729 49.8547C21.7719 48.4722 22.6014 46.3524 23.1083 44.0943C24.1682 39.7164 28.5 37.228 28.6844 37.1358ZM32.4171 24.2786C33.2005 24.2786 33.7996 24.9238 33.7996 25.6611C33.7996 26.4445 33.1544 27.0436 32.4171 27.0436C31.6337 27.0436 31.0346 26.3985 31.0346 25.6611C31.0346 24.9238 31.6337 24.2786 32.4171 24.2786Z" fill="#BDD2FF"/>
</g>
<defs>
<clipPath id="clip0_82_773">
<rect width="38.2488" height="38.341" fill="white" transform="translate(0.851074 11.5137)"/>
</clipPath>
</defs>
</svg>
