<svg width="51" height="51" viewBox="0 0 51 51" fill="none" xmlns="http://www.w3.org/2000/svg">
<g clip-path="url(#clip0_82_986)">
<circle cx="25.2498" cy="25.5" r="25" fill="#D9C7FD"/>
<path d="M43.6908 59.5234C35.0195 59.5234 24.7606 57.9357 18.6541 51.7071C13.6467 46.6998 12.1812 39.3719 14.0131 30.09L10.1049 28.6245C9.61641 28.5023 9.25 28.0138 9.25 27.4032C9.25 26.9146 9.61641 26.4261 10.1049 26.304L13.7688 25.0827L10.4713 22.0294C10.1049 21.663 9.9828 21.0524 10.2271 20.686C10.4713 20.1975 10.9598 19.9532 11.4484 19.9532L16.9442 20.4417C18.5319 17.0221 23.1729 9.81639 34.1646 11.8926C37.34 12.5033 41.6146 13.9688 44.3014 17.877C46.4998 21.0524 46.8662 24.3499 46.744 27.1589C49.3088 28.7466 52.1178 29.7236 54.8046 29.9679C58.8349 30.3343 62.7431 29.2351 66.2849 26.7925C66.7734 26.4261 67.2619 26.5483 67.7505 26.7925C68.1169 27.1589 68.3611 27.6474 68.1168 28.1359C66.0406 33.6318 62.621 38.1506 58.2243 41.326C54.6825 43.8908 50.4079 45.4785 46.0112 45.8448C46.744 48.8981 48.2096 51.2186 50.2858 52.8063C52.4841 54.5161 55.5374 55.371 59.2013 55.371C59.812 55.371 60.3005 55.8595 60.4226 56.4702C60.5448 57.0808 60.0562 57.6915 59.4456 57.8136C59.0792 58.0579 52.1178 59.5234 43.6908 59.5234ZM14.2574 27.5253L15.8451 28.1359C16.4557 28.3802 16.7 28.9909 16.5778 29.6015C14.5016 38.6392 15.845 45.4785 20.3639 49.9973C27.8138 57.5694 42.7137 57.4472 51.6292 56.5923C50.6522 56.1038 49.6752 55.6153 48.8203 54.8825C46.0113 52.6841 44.0572 49.3866 43.3244 44.9899C43.2023 44.6235 43.3244 44.2572 43.5686 44.0129C43.8129 43.7686 44.1793 43.5244 44.4236 43.5244C48.9424 43.4022 53.0948 41.9367 56.7587 39.3719C59.812 37.1736 62.3767 34.2425 64.2086 30.7007C61.1554 32.0441 57.8579 32.6548 54.5604 32.4105C51.1407 32.0441 47.8432 30.8228 44.7899 28.8687C44.4235 28.6245 44.1793 28.2581 44.3014 27.7696C44.5457 24.1056 43.935 21.663 42.3473 19.3426C40.0269 16.1672 36.3629 14.8237 33.6761 14.3352C23.7835 12.3811 19.9975 19.2204 18.8983 22.1516C18.6541 22.6401 18.1655 23.0065 17.677 22.8843L14.868 22.6401L17.0664 24.7163C17.4328 24.9606 17.5549 25.4491 17.4327 25.9376C17.3106 26.304 17.0663 26.6704 16.5778 26.7925L14.2574 27.5253Z" fill="white"/>
<path d="M25.4918 23.7414C23.782 23.7414 22.3164 22.398 22.3164 20.566C22.3164 18.7341 23.6598 17.3906 25.4918 17.3906C27.2016 17.3906 28.6672 18.7341 28.6672 20.566C28.6672 22.398 27.2016 23.7414 25.4918 23.7414ZM25.4918 19.9554C25.1254 19.9554 24.759 20.3218 24.759 20.6881C24.759 21.0545 25.1254 21.4209 25.4918 21.4209C25.8582 21.4209 26.2246 21.0545 26.2246 20.6881C26.2246 20.3218 25.8582 19.9554 25.4918 19.9554Z" fill="white"/>
</g>
<defs>
<clipPath id="clip0_82_986">
<rect x="0.25" y="0.5" width="50" height="50" rx="25" fill="white"/>
</clipPath>
</defs>
</svg>
