<svg width="51" height="51" viewBox="0 0 51 51" fill="none" xmlns="http://www.w3.org/2000/svg">
<path d="M25.727 0.5C12.3168 0.5 1.39516 11.053 0.75 24.3249C0.934332 24.2327 1.16475 24.1866 1.44124 24.1866C1.48733 24.1866 4.48272 24.4631 9.22927 23.7719C13.5611 23.1267 15.6809 20.2235 15.773 20.0853C15.8191 20.0392 15.8652 19.9931 15.9113 19.947C16.5565 19.3018 17.0634 18.5645 17.6624 17.735C17.8007 17.5046 17.985 17.3203 18.1233 17.0899C20.2892 14.1406 22.962 11.606 26.3721 9.30184C26.6947 9.11751 27.6164 8.47235 28.6302 8.84101C29.2753 9.11751 29.7362 9.71659 29.9666 10.6383L30.1048 11.1452C30.3352 12.0207 30.5196 12.8963 30.6578 13.818C30.75 14.6014 31.0265 15.0622 31.7177 15.5691C34.4366 17.5968 37.2938 20.2235 37.985 24.2788C38.2615 25.9378 38.9067 27.0899 40.1048 28.0576C40.3353 28.2419 40.5657 28.4723 40.75 28.6567C40.8882 28.6106 41.0265 28.5645 41.2108 28.5645C41.9482 28.5645 42.5472 29.1636 42.5472 29.9009C42.5472 30.5 42.1786 30.9608 41.6256 31.1452C41.6256 31.8825 41.4412 32.6659 41.0726 33.4032C39.9205 35.7535 37.8929 37.3664 34.9435 38.288C33.7915 38.6567 32.6394 38.9332 31.4873 39.2097C30.9343 39.3479 30.3353 39.4862 29.7823 39.6244C29.1371 40.0392 26.326 41.9286 25.6809 44.8318C25.22 46.9055 24.4827 48.8871 23.8836 50.3617C24.4827 50.4078 25.1279 50.4539 25.773 50.4539C39.5979 50.4539 50.75 39.2558 50.75 25.477C50.75 11.6982 39.5058 0.5 25.727 0.5Z" fill="#29304B"/>
</svg>
