<svg width="51" height="51" viewBox="0 0 51 51" fill="none" xmlns="http://www.w3.org/2000/svg">
<g clip-path="url(#clip0_82_882)">
<circle cx="25.5" cy="25.5" r="25" fill="#D8E464"/>
<path d="M-5.17834 36.3465H36.4438C37.0259 36.3465 37.511 36.1465 37.8991 35.6465C38.2872 35.1465 38.5782 34.4465 38.4812 33.8465C37.9961 28.5465 34.8914 22.8465 30.3314 21.6465C30.6225 20.4465 30.8165 19.1465 30.8165 17.7465C30.8165 15.5465 30.0404 13.7465 28.488 12.6465C26.8387 11.4465 24.6072 11.1465 22.3757 11.9465C20.0472 12.7465 18.3008 14.3465 17.6216 16.3465C17.3306 17.1465 17.2336 18.0465 17.2336 18.8465C14.711 17.1465 11.8974 16.2465 9.08379 16.2465C3.26252 16.2465 -1.97663 19.6465 -4.98428 25.4465C-5.17833 25.7465 -5.37236 26.2465 -5.76044 27.1465C-6.63363 29.2465 -7.11874 31.5465 -7.31279 33.8465C-7.31279 34.5465 -7.11874 35.1465 -6.73066 35.6465C-6.24555 36.0465 -5.76046 36.3465 -5.17834 36.3465ZM24.9953 13.4465C25.9655 13.4465 26.7416 13.7465 27.4208 14.2465C28.391 14.9465 28.8761 16.2465 28.8761 17.7465C28.8761 19.2465 28.5851 20.7465 28.0999 22.0465C28.0029 22.3465 28.0029 22.6465 28.197 22.9465C28.391 23.2465 28.6821 23.3465 28.9731 23.4465C33.048 23.7465 36.0557 29.2465 36.5408 34.0465C36.5408 34.1465 36.5408 34.3465 36.4438 34.3465H-5.27534C-5.37236 34.2465 -5.46939 34.1465 -5.37236 34.0465C-5.27534 31.9465 -4.79024 29.8465 -4.01407 27.9465C-4.01407 27.9465 -3.43193 26.6465 -3.33491 26.3465C-0.618317 21.2465 3.94167 18.2465 9.08379 18.2465C12.2855 18.2465 15.4872 19.5465 18.0097 21.9465C18.7859 22.6465 19.368 22.3465 19.5621 22.1465C19.9501 21.8465 20.0472 21.1465 19.7561 20.7465C18.9799 19.5465 18.8829 18.1465 19.271 16.9465C19.7561 15.5465 21.1144 14.3465 22.8608 13.7465C23.734 13.5465 24.4131 13.4465 24.9953 13.4465Z" fill="white" stroke="white" stroke-width="0.5"/>
<circle cx="29" cy="28" r="1.5" fill="white"/>
</g>
<defs>
<clipPath id="clip0_82_882">
<rect x="0.5" y="0.5" width="50" height="50" rx="25" fill="white"/>
</clipPath>
</defs>
</svg>
