<svg width="50" height="51" viewBox="0 0 50 51" fill="none" xmlns="http://www.w3.org/2000/svg">
<path d="M0 25.5C0 11.7085 11.2085 0.5 25 0.5C38.8376 0.5 50 11.7085 50 25.5C50 31.1273 48.1089 36.3395 44.9723 40.5369C44.3727 39.2915 43.5886 37.6771 42.6199 35.6937C41.1439 32.6494 39.4834 29.2362 39.2528 28.6365L37.4539 23.8395C35.7472 19.2269 34.0406 14.6605 32.3339 10.048C32.1494 9.49446 31.5037 7.78782 29.4742 7.37269C27.4908 6.95756 25.6458 8.24908 25.1845 10.3708C24.9077 11.7085 24.631 13 24.3542 14.3376L23.9852 16.0904H21.7251C17.2509 16.0904 14.2989 18.2583 13.0996 22.4096H9.68635C9.50184 22.4096 9.31734 22.4096 9.13284 22.4096C8.76384 22.4096 8.44096 22.4096 8.11808 22.4096C5.85793 22.1328 3.69004 23.6089 3.69004 26.1458C3.69004 31.5424 7.51845 36.524 12.5922 38.1845C13.7915 38.5996 15.083 38.7841 16.3745 38.8303C17.5738 38.8303 18.7731 38.8303 19.9262 38.8303C20.1107 38.8303 20.2952 38.8303 20.4797 38.8303C20.7103 40.1679 21.0332 42.5664 21.3561 44.5959C21.7251 47.179 22.048 49.1162 22.2325 50.3616C9.73247 48.9779 0 38.369 0 25.5Z" fill="#B2E2F3"/>
</svg>
