<svg width="8" height="14" viewBox="0 0 8 14" fill="none" xmlns="http://www.w3.org/2000/svg">
<path d="M4.55371 9.45996H2.59375C2.59961 8.91504 2.64648 8.45801 2.73438 8.08887C2.82227 7.71387 2.96875 7.37402 3.17383 7.06934C3.38477 6.76465 3.66309 6.44238 4.00879 6.10254C4.27832 5.84473 4.52148 5.60156 4.73828 5.37305C4.95508 5.13867 5.12793 4.89258 5.25684 4.63477C5.38574 4.37109 5.4502 4.06934 5.4502 3.72949C5.4502 3.36035 5.38867 3.04688 5.26562 2.78906C5.14258 2.53125 4.96094 2.33496 4.7207 2.2002C4.48633 2.06543 4.19336 1.99805 3.8418 1.99805C3.54883 1.99805 3.27344 2.05664 3.01562 2.17383C2.75781 2.28516 2.5498 2.46094 2.3916 2.70117C2.2334 2.93555 2.14844 3.24609 2.13672 3.63281H0.0185547C0.0302734 2.89453 0.206055 2.27344 0.545898 1.76953C0.885742 1.26562 1.34277 0.887695 1.91699 0.635742C2.49121 0.383789 3.13281 0.257812 3.8418 0.257812C4.62695 0.257812 5.29785 0.392578 5.85449 0.662109C6.41113 0.925781 6.83594 1.3125 7.12891 1.82227C7.42773 2.32617 7.57715 2.93555 7.57715 3.65039C7.57715 4.16602 7.47461 4.63477 7.26953 5.05664C7.06445 5.47266 6.79785 5.8623 6.46973 6.22559C6.1416 6.58301 5.78711 6.94043 5.40625 7.29785C5.07812 7.59668 4.85547 7.92188 4.73828 8.27344C4.62109 8.61914 4.55957 9.01465 4.55371 9.45996ZM2.41797 12.2021C2.41797 11.8857 2.52637 11.6191 2.74316 11.4023C2.95996 11.1797 3.25586 11.0684 3.63086 11.0684C4.00586 11.0684 4.30176 11.1797 4.51855 11.4023C4.73535 11.6191 4.84375 11.8857 4.84375 12.2021C4.84375 12.5186 4.73535 12.7881 4.51855 13.0107C4.30176 13.2275 4.00586 13.3359 3.63086 13.3359C3.25586 13.3359 2.95996 13.2275 2.74316 13.0107C2.52637 12.7881 2.41797 12.5186 2.41797 12.2021Z" fill="#7292F2"/>
</svg>
