<svg width="31" height="30" viewBox="0 0 31 30" fill="none" xmlns="http://www.w3.org/2000/svg">
<path d="M5.5 17C5.5 13.2288 5.5 11.3431 6.67157 10.1716C7.84315 9 9.72876 9 13.5 9H17.5C21.2712 9 23.1569 9 24.3284 10.1716C25.5 11.3431 25.5 13.2288 25.5 17C25.5 20.7712 25.5 22.6569 24.3284 23.8284C23.1569 25 21.2712 25 17.5 25H13.5C9.72876 25 7.84315 25 6.67157 23.8284C5.5 22.6569 5.5 20.7712 5.5 17Z" stroke="#7A83A1" stroke-width="1.5"/>
<path d="M19.5 9C19.5 7.11438 19.5 6.17157 18.9142 5.58579C18.3284 5 17.3856 5 15.5 5C13.6144 5 12.6716 5 12.0858 5.58579C11.5 6.17157 11.5 7.11438 11.5 9" stroke="#7A83A1" stroke-width="1.5"/>
<path d="M17 17H14M15.5 15.5V18.5" stroke="#7A83A1" stroke-width="1.5" stroke-linecap="round"/>
<circle cx="15.5" cy="17" r="4" stroke="#7A83A1" stroke-width="1.5"/>
</svg>
