<svg width="31" height="30" viewBox="0 0 31 30" fill="none" xmlns="http://www.w3.org/2000/svg">
<path d="M17.0001 5.00012C17.0001 5.00012 19.3336 5.21225 22.3034 8.1821C25.2733 11.152 25.4854 13.4854 25.4854 13.4854" stroke="#7A83A2" stroke-width="1.5" stroke-linecap="round"/>
<path d="M17.707 8.53564C17.707 8.53564 18.697 8.81849 20.1819 10.3034C21.6668 11.7883 21.9497 12.7783 21.9497 12.7783" stroke="#7A83A2" stroke-width="1.5" stroke-linecap="round"/>
<path d="M18.6007 18.0272L18.0569 17.5107L18.6007 18.0272ZM19.0562 17.5477L19.6 18.0642H19.6L19.0562 17.5477ZM21.4728 17.2123L21.0987 17.8623H21.0987L21.4728 17.2123ZM23.3833 18.312L23.0092 18.962L23.3833 18.312ZM23.9217 21.7584L24.4655 22.2749L23.9217 21.7584ZM22.5011 23.254L21.9573 22.7375L22.5011 23.254ZM21.1763 23.9631L21.2499 24.7095L21.1763 23.9631ZM11.3154 19.4752L11.8592 18.9587L11.3154 19.4752ZM6.50289 9.96594L5.75397 10.0061L5.75397 10.0061L6.50289 9.96594ZM12.9775 11.5031L13.5213 12.0196H13.5213L12.9775 11.5031ZM13.1342 8.6931L13.7466 8.26012L13.1342 8.6931ZM11.8733 6.90961L11.2609 7.3426V7.3426L11.8733 6.90961ZM8.76145 6.60864L9.30524 7.12516L8.76145 6.60864ZM7.19185 8.26114L6.64806 7.74462L6.64806 7.74462L7.19185 8.26114ZM14.5631 16.0559L15.1069 15.5394L14.5631 16.0559ZM19.1445 18.5437L19.6 18.0642L18.5124 17.0312L18.0569 17.5107L19.1445 18.5437ZM21.0987 17.8623L23.0092 18.962L23.7575 17.662L21.847 16.5623L21.0987 17.8623ZM23.3779 21.2419L21.9573 22.7375L23.0449 23.7705L24.4655 22.2749L23.3779 21.2419ZM21.1026 23.2167C19.6676 23.3584 15.9233 23.2375 11.8592 18.9587L10.7716 19.9917C15.2009 24.655 19.4261 24.8895 21.2499 24.7095L21.1026 23.2167ZM11.8592 18.9587C7.98303 14.8778 7.33285 11.4356 7.25181 9.92574L5.75397 10.0061C5.85322 11.8554 6.6384 15.6403 10.7716 19.9917L11.8592 18.9587ZM13.2345 12.3216L13.5213 12.0196L12.4337 10.9866L12.1469 11.2886L13.2345 12.3216ZM13.7466 8.26012L12.4856 6.47663L11.2609 7.3426L12.5218 9.12608L13.7466 8.26012ZM8.21766 6.09213L6.64806 7.74462L7.73564 8.77765L9.30524 7.12516L8.21766 6.09213ZM12.6907 11.8051C12.1469 11.2886 12.1462 11.2893 12.1455 11.29C12.1453 11.2903 12.1446 11.291 12.1441 11.2915C12.1432 11.2925 12.1422 11.2936 12.1412 11.2946C12.1392 11.2967 12.1372 11.299 12.1351 11.3013C12.1309 11.3059 12.1265 11.3109 12.1218 11.3163C12.1124 11.327 12.1022 11.3393 12.0912 11.3532C12.0692 11.381 12.0443 11.4151 12.0182 11.4559C11.9659 11.5376 11.9092 11.6453 11.8611 11.7803C11.7634 12.0549 11.7102 12.4185 11.7767 12.8726C11.9074 13.7647 12.492 14.9644 14.0193 16.5724L15.1069 15.5394C13.6793 14.0363 13.3276 13.1106 13.2609 12.6551C13.2287 12.4354 13.2614 12.3196 13.2743 12.2832C13.2816 12.2628 13.2863 12.2571 13.2817 12.2644C13.2794 12.2679 13.2749 12.2745 13.2674 12.2841C13.2636 12.2888 13.259 12.2944 13.2536 12.3006C13.2509 12.3038 13.2479 12.3071 13.2448 12.3106C13.2432 12.3123 13.2415 12.3141 13.2398 12.3159C13.239 12.3169 13.2381 12.3178 13.2372 12.3187C13.2368 12.3192 13.2361 12.3199 13.2359 12.3202C13.2352 12.3209 13.2345 12.3216 12.6907 11.8051ZM14.0193 16.5724C15.5422 18.1757 16.6923 18.806 17.5698 18.9485C18.0201 19.0216 18.3846 18.9632 18.6606 18.8544C18.7955 18.8012 18.9022 18.7387 18.9823 18.6819C19.0223 18.6535 19.0556 18.6266 19.0824 18.6031C19.0959 18.5913 19.1077 18.5803 19.118 18.5703C19.1232 18.5654 19.128 18.5606 19.1324 18.5562C19.1346 18.554 19.1367 18.5518 19.1387 18.5497C19.1397 18.5487 19.1407 18.5477 19.1417 18.5467C19.1422 18.5462 19.1429 18.5454 19.1431 18.5452C19.1438 18.5444 19.1445 18.5437 18.6007 18.0272C18.0569 17.5107 18.0576 17.51 18.0583 17.5093C18.0585 17.509 18.0592 17.5083 18.0596 17.5078C18.0605 17.5069 18.0614 17.506 18.0623 17.5051C18.0641 17.5033 18.0658 17.5015 18.0674 17.4998C18.0708 17.4965 18.074 17.4933 18.077 17.4904C18.083 17.4846 18.0885 17.4796 18.0933 17.4754C18.1028 17.467 18.1099 17.4616 18.1145 17.4584C18.1239 17.4517 18.1229 17.454 18.1102 17.459C18.0909 17.4666 18 17.4987 17.8103 17.4679C17.4077 17.4025 16.5391 17.0472 15.1069 15.5394L14.0193 16.5724ZM12.4856 6.47663C11.4721 5.04305 9.44384 4.80119 8.21766 6.09213L9.30524 7.12516C9.82808 6.57471 10.7485 6.61795 11.2609 7.3426L12.4856 6.47663ZM7.25181 9.92574C7.23038 9.52644 7.40425 9.12654 7.73564 8.77765L6.64806 7.74462C6.11221 8.30877 5.70493 9.09246 5.75397 10.0061L7.25181 9.92574ZM21.9573 22.7375C21.6783 23.0313 21.3864 23.1887 21.1026 23.2167L21.2499 24.7095C21.997 24.6357 22.6016 24.2373 23.0449 23.7705L21.9573 22.7375ZM13.5213 12.0196C14.4889 11.001 14.5574 9.40678 13.7466 8.26012L12.5218 9.12608C12.944 9.72315 12.8793 10.5175 12.4337 10.9866L13.5213 12.0196ZM23.0092 18.962C23.83 19.4345 23.9907 20.5968 23.3779 21.2419L24.4655 22.2749C25.7704 20.901 25.3904 18.6019 23.7575 17.662L23.0092 18.962ZM19.6 18.0642C19.9854 17.6584 20.586 17.5672 21.0987 17.8623L21.847 16.5623C20.7485 15.93 19.3861 16.1113 18.5124 17.0312L19.6 18.0642Z" fill="#7A83A2"/>
</svg>
