<svg width="31" height="30" viewBox="0 0 31 30" fill="none" xmlns="http://www.w3.org/2000/svg">
<path d="M25.5 25L5.5 25" stroke="#7A83A2" stroke-width="1.5" stroke-linecap="round"/>
<path d="M5.5 14L13.6259 7.49925C14.7216 6.62273 16.2784 6.62273 17.3741 7.49925L25.5 14" stroke="#7A83A2" stroke-width="1.5" stroke-linecap="round"/>
<path d="M19 8.5V6.5C19 6.22386 19.2239 6 19.5 6H22C22.2761 6 22.5 6.22386 22.5 6.5V11.5" stroke="#7A83A2" stroke-width="1.5" stroke-linecap="round"/>
<path d="M7.5 25V12.5" stroke="#7A83A2" stroke-width="1.5" stroke-linecap="round"/>
<path d="M23.5 25V12.5" stroke="#7A83A2" stroke-width="1.5" stroke-linecap="round"/>
<path d="M18.5 25V20C18.5 18.5858 18.5 17.8787 18.0607 17.4393C17.6213 17 16.9142 17 15.5 17C14.0858 17 13.3787 17 12.9393 17.4393C12.5 17.8787 12.5 18.5858 12.5 20V25" stroke="#7A83A2" stroke-width="1.5"/>
</svg>
