<svg width="31" height="30" viewBox="0 0 31 30" fill="none" xmlns="http://www.w3.org/2000/svg">
<path d="M23.8116 15.6473L24.3293 13.7154C24.9335 11.4603 25.2356 10.3328 25.0081 9.35703C24.8285 8.58657 24.4244 7.88668 23.847 7.34587C23.1157 6.66095 21.9881 6.35883 19.7331 5.75458C17.478 5.15033 16.3504 4.84821 15.3747 5.07573C14.6042 5.25537 13.9043 5.65945 13.3635 6.23687C12.7771 6.86298 12.4713 7.77957 12.0162 9.44561C11.9398 9.7254 11.8592 10.0263 11.7723 10.3506L11.7722 10.3508L11.2546 12.2826C10.6503 14.5377 10.3482 15.6652 10.5757 16.641C10.7554 17.4115 11.1595 18.1114 11.7369 18.6522C12.4682 19.3371 13.5957 19.6392 15.8508 20.2435L15.8508 20.2435C17.8834 20.7881 18.9999 21.0873 19.915 20.9744C20.0152 20.9621 20.1129 20.9448 20.2092 20.9223C20.9796 20.7427 21.6795 20.3386 22.2203 19.7612C22.9052 19.0299 23.2074 17.9024 23.8116 15.6473Z" stroke="#7A83A2" stroke-width="1.5"/>
<path d="M19.915 20.9741C19.7065 21.6126 19.3399 22.1902 18.847 22.6519C18.1157 23.3368 16.9881 23.6389 14.7331 24.2432C12.478 24.8474 11.3504 25.1495 10.3747 24.922C9.60421 24.7424 8.90432 24.3383 8.36351 23.7609C7.67859 23.0296 7.37647 21.9021 6.77222 19.647L6.25458 17.7151C5.65033 15.46 5.34821 14.3325 5.57573 13.3567C5.75537 12.5863 6.15945 11.8864 6.73687 11.3456C7.46815 10.6606 8.59569 10.3585 10.8508 9.75428C11.2774 9.63996 11.6637 9.53646 12.0162 9.44531" stroke="#7A83A2" stroke-width="1.5"/>
</svg>
