<svg width="17" height="17" viewBox="0 0 17 17" fill="none" xmlns="http://www.w3.org/2000/svg">
<path d="M7.79169 14.6979C3.98085 14.6979 0.885437 11.6025 0.885437 7.79169C0.885437 3.98085 3.98085 0.885437 7.79169 0.885437C11.6025 0.885437 14.6979 3.98085 14.6979 7.79169C14.6979 11.6025 11.6025 14.6979 7.79169 14.6979ZM7.79169 1.94794C4.56877 1.94794 1.94794 4.56877 1.94794 7.79169C1.94794 11.0146 4.56877 13.6354 7.79169 13.6354C11.0146 13.6354 13.6354 11.0146 13.6354 7.79169C13.6354 4.56877 11.0146 1.94794 7.79169 1.94794Z" fill="#29304B"/>
<path d="M14.28 16.1429C14.2233 16.1429 14.1667 16.1358 14.1171 16.1287C13.7842 16.0862 13.1821 15.8596 12.8421 14.8467C12.665 14.3154 12.7288 13.7842 13.0192 13.3804C13.3096 12.9767 13.7983 12.75 14.3579 12.75C15.0804 12.75 15.6471 13.0263 15.9021 13.515C16.1571 14.0037 16.0863 14.6271 15.6825 15.2292C15.1796 15.9871 14.6342 16.1429 14.28 16.1429ZM13.855 14.5137C13.9754 14.8821 14.1454 15.0662 14.2588 15.0804C14.3721 15.0946 14.5846 14.96 14.8042 14.6413C15.0096 14.3367 15.0238 14.1171 14.9742 14.0179C14.9246 13.9187 14.7263 13.8125 14.3579 13.8125C14.1383 13.8125 13.9754 13.8833 13.8833 14.0037C13.7983 14.1242 13.7842 14.3083 13.855 14.5137Z" fill="#29304B"/>
</svg>
