<svg width="36" height="36" viewBox="0 0 36 36" fill="none" xmlns="http://www.w3.org/2000/svg">
<rect x="0.144836" y="0.000244141" width="35.0724" height="35.0724" rx="15" fill="#EBEEF7"/>
<g clip-path="url(#clip0_33_835)">
<path d="M17.681 9.71751C20.229 9.71751 20.5307 9.72868 21.5328 9.77338C22.4641 9.81436 22.9669 9.97081 23.3022 10.1012C23.7455 10.2725 24.0658 10.4811 24.3974 10.8127C24.7326 11.1479 24.9375 11.4646 25.1089 11.9079C25.2392 12.2431 25.3957 12.7497 25.4367 13.6773C25.4814 14.683 25.4925 14.9848 25.4925 17.529C25.4925 20.077 25.4814 20.3787 25.4367 21.3807C25.3957 22.312 25.2392 22.8149 25.1089 23.1502C24.9375 23.5934 24.7289 23.9138 24.3974 24.2453C24.0621 24.5806 23.7455 24.7855 23.3022 24.9568C22.9669 25.0872 22.4603 25.2436 21.5328 25.2846C20.527 25.3293 20.2253 25.3405 17.681 25.3405C15.1331 25.3405 14.8314 25.3293 13.8293 25.2846C12.898 25.2436 12.3952 25.0872 12.0599 24.9568C11.6166 24.7855 11.2963 24.5769 10.9647 24.2453C10.6295 23.9101 10.4246 23.5934 10.2532 23.1502C10.1229 22.8149 9.9664 22.3083 9.92543 21.3807C9.88072 20.375 9.86955 20.0732 9.86955 17.529C9.86955 14.981 9.88072 14.6793 9.92543 13.6773C9.9664 12.746 10.1229 12.2431 10.2532 11.9079C10.4246 11.4646 10.6332 11.1442 10.9647 10.8127C11.3 10.4774 11.6166 10.2725 12.0599 10.1012C12.3952 9.97081 12.9018 9.81436 13.8293 9.77338C14.8314 9.72868 15.1331 9.71751 17.681 9.71751ZM17.681 8.00024C15.0921 8.00024 14.768 8.01142 13.7511 8.05612C12.7379 8.10082 12.0413 8.26472 11.4378 8.49941C10.8083 8.74526 10.2756 9.06934 9.74662 9.60203C9.21394 10.131 8.88985 10.6637 8.644 11.2895C8.40932 11.8967 8.24541 12.5895 8.20071 13.6028C8.15601 14.6234 8.14484 14.9475 8.14484 17.5365C8.14484 20.1254 8.15601 20.4495 8.20071 21.4664C8.24541 22.4796 8.40932 23.1762 8.644 23.7797C8.88985 24.4092 9.21394 24.9419 9.74662 25.4709C10.2756 25.9998 10.8083 26.3276 11.4341 26.5698C12.0413 26.8045 12.7341 26.9684 13.7474 27.0131C14.7643 27.0578 15.0884 27.0689 17.6773 27.0689C20.2663 27.0689 20.5903 27.0578 21.6073 27.0131C22.6205 26.9684 23.3171 26.8045 23.9206 26.5698C24.5464 26.3276 25.0791 25.9998 25.608 25.4709C26.137 24.9419 26.4648 24.4092 26.7069 23.7834C26.9416 23.1762 27.1055 22.4834 27.1502 21.4701C27.1949 20.4532 27.2061 20.1291 27.2061 17.5402C27.2061 14.9512 27.1949 14.6272 27.1502 13.6102C27.1055 12.597 26.9416 11.9004 26.7069 11.2969C26.4722 10.6637 26.1482 10.131 25.6155 9.60203C25.0865 9.07307 24.5538 8.74526 23.928 8.50313C23.3208 8.26845 22.628 8.10455 21.6147 8.05985C20.5941 8.01142 20.27 8.00024 17.681 8.00024Z" fill="white"/>
<path d="M17.681 12.6379C14.9766 12.6379 12.7825 14.832 12.7825 17.5364C12.7825 20.2408 14.9766 22.4349 17.681 22.4349C20.3854 22.4349 22.5795 20.2408 22.5795 17.5364C22.5795 14.832 20.3854 12.6379 17.681 12.6379ZM17.681 20.7139C15.9265 20.7139 14.5035 19.2909 14.5035 17.5364C14.5035 15.7819 15.9265 14.3589 17.681 14.3589C19.4355 14.3589 20.8585 15.7819 20.8585 17.5364C20.8585 19.2909 19.4355 20.7139 17.681 20.7139Z" fill="white"/>
<path d="M23.917 12.4441C23.917 13.0774 23.403 13.5877 22.7734 13.5877C22.1402 13.5877 21.6298 13.0737 21.6298 12.4441C21.6298 11.8109 22.1439 11.3005 22.7734 11.3005C23.403 11.3005 23.917 11.8146 23.917 12.4441Z" fill="white"/>
</g>
<defs>
<clipPath id="clip0_33_835">
<rect width="19.0724" height="19.0724" fill="white" transform="translate(8.14484 8.00024)"/>
</clipPath>
</defs>
</svg>
