<svg width="36" height="36" viewBox="0 0 36 36" fill="none" xmlns="http://www.w3.org/2000/svg">
<rect x="0.0723877" y="0.000244141" width="35.0724" height="35.0724" rx="15" fill="#304173"/>
<g clip-path="url(#clip0_33_833)">
<path d="M14.0724 25.2848C21.2678 25.2848 25.2045 19.322 25.2045 14.1527C25.2045 13.9851 25.2007 13.8137 25.1933 13.6461C25.9591 13.0923 26.62 12.4063 27.1449 11.6204C26.4317 11.9377 25.6744 12.145 24.899 12.235C25.7155 11.7457 26.3268 10.9769 26.6196 10.0711C25.8516 10.5263 25.0116 10.8474 24.1357 11.0207C23.5456 10.3936 22.7654 9.97845 21.9156 9.83932C21.0658 9.7002 20.1939 9.84489 19.4346 10.251C18.6754 10.6571 18.071 11.3021 17.715 12.0861C17.359 12.8701 17.2713 13.7496 17.4652 14.5886C15.91 14.5105 14.3885 14.1065 12.9995 13.4027C11.6104 12.6989 10.3847 11.7111 9.40193 10.5033C8.90242 11.3645 8.74956 12.3836 8.97444 13.3534C9.19931 14.3233 9.78504 15.1712 10.6126 15.7247C9.99132 15.705 9.38366 15.5377 8.83982 15.2367V15.2851C8.83926 16.1889 9.15171 17.065 9.72405 17.7645C10.2964 18.464 11.0933 18.9436 11.9793 19.122C11.4038 19.2794 10.7998 19.3024 10.214 19.189C10.464 19.9663 10.9505 20.6461 11.6054 21.1336C12.2604 21.6211 13.0512 21.8919 13.8676 21.9083C12.4817 22.997 10.7697 23.5874 9.00744 23.5846C8.69491 23.5841 8.38269 23.565 8.07245 23.5273C9.86276 24.6758 11.9454 25.2859 14.0724 25.2848Z" fill="white"/>
</g>
<defs>
<clipPath id="clip0_33_833">
<rect width="19.0724" height="19.0724" fill="white" transform="translate(8.07239 8.00024)"/>
</clipPath>
</defs>
</svg>
