<svg width="36" height="36" viewBox="0 0 36 36" fill="none" xmlns="http://www.w3.org/2000/svg">
<rect x="0.217285" y="0.000244141" width="35.0724" height="35.0724" rx="15" fill="#EBEEF7"/>
<g clip-path="url(#clip0_33_837)">
<path fill-rule="evenodd" clip-rule="evenodd" d="M27.2897 17.5365C27.2897 22.8032 23.0202 27.0727 17.7535 27.0727C12.4868 27.0727 8.21729 22.8032 8.21729 17.5365C8.21729 12.2698 12.4868 8.00024 17.7535 8.00024C23.0202 8.00024 27.2897 12.2698 27.2897 17.5365ZM18.095 15.0403C17.1674 15.4261 15.3137 16.2246 12.5337 17.4358C12.0822 17.6154 11.8458 17.791 11.8242 17.9627C11.7878 18.2529 12.1513 18.3672 12.6462 18.5228C12.7135 18.544 12.7832 18.5659 12.8547 18.5892C13.3416 18.7474 13.9966 18.9326 14.3371 18.9399C14.646 18.9466 14.9907 18.8193 15.3713 18.5579C17.9687 16.8046 19.3095 15.9184 19.3937 15.8993C19.4531 15.8858 19.5354 15.8688 19.5911 15.9184C19.6469 15.968 19.6414 16.0618 19.6355 16.087C19.5995 16.2405 18.1729 17.5668 17.4347 18.2531C17.2045 18.4671 17.0413 18.6189 17.0079 18.6535C16.9331 18.7312 16.8569 18.8046 16.7837 18.8752C16.3314 19.3113 15.9921 19.6383 16.8025 20.1723C17.1919 20.4289 17.5035 20.6411 17.8144 20.8528C18.1539 21.084 18.4925 21.3146 18.9306 21.6018C19.0423 21.675 19.1489 21.751 19.2527 21.825C19.6478 22.1067 20.0028 22.3598 20.4413 22.3194C20.6961 22.296 20.9594 22.0564 21.093 21.3417C21.4089 19.6529 22.0299 15.9936 22.1734 14.4857C22.186 14.3536 22.1702 14.1845 22.1575 14.1103C22.1448 14.0361 22.1182 13.9303 22.0218 13.852C21.9075 13.7593 21.7311 13.7398 21.6522 13.7412C21.2936 13.7475 20.7433 13.9388 18.095 15.0403Z" fill="white"/>
</g>
<defs>
<clipPath id="clip0_33_837">
<rect width="19.0724" height="19.0724" fill="white" transform="translate(8.21729 8.00024)"/>
</clipPath>
</defs>
</svg>
