<svg width="36" height="36" viewBox="0 0 36 36" fill="none" xmlns="http://www.w3.org/2000/svg">
<rect y="0.000244141" width="35.0724" height="35.0724" rx="15" fill="#EBEEF7"/>
<g clip-path="url(#clip0_33_831)">
<path d="M27.0724 17.5365C27.0724 12.2697 22.8029 8.00024 17.5362 8.00024C12.2695 8.00024 8 12.2697 8 17.5365C8 22.2962 11.4872 26.2414 16.0462 26.9568V20.293H13.6249V17.5365H16.0462V15.4355C16.0462 13.0455 17.4699 11.7253 19.6481 11.7253C20.6912 11.7253 21.7828 11.9116 21.7828 11.9116V14.2584H20.5803C19.3958 14.2584 19.0262 14.9935 19.0262 15.7484V17.5365H21.6711L21.2483 20.293H19.0262V26.9568C23.5852 26.2414 27.0724 22.2962 27.0724 17.5365Z" fill="white"/>
</g>
<defs>
<clipPath id="clip0_33_831">
<rect width="19.0724" height="19.0724" fill="white" transform="translate(8 8.00024)"/>
</clipPath>
</defs>
</svg>
