<svg width="37" height="36" viewBox="0 0 37 36" fill="none" xmlns="http://www.w3.org/2000/svg">
<path d="M18.2897 21.1252C16.5647 21.1252 15.1647 19.7252 15.1647 18.0002C15.1647 16.2752 16.5647 14.8752 18.2897 14.8752C20.0147 14.8752 21.4147 16.2752 21.4147 18.0002C21.4147 19.7252 20.0147 21.1252 18.2897 21.1252ZM18.2897 16.1252C17.2563 16.1252 16.4147 16.9669 16.4147 18.0002C16.4147 19.0336 17.2563 19.8752 18.2897 19.8752C19.323 19.8752 20.1647 19.0336 20.1647 18.0002C20.1647 16.9669 19.323 16.1252 18.2897 16.1252Z" fill="#7A83A2" stroke="#7A83A2" stroke-width="0.3"/>
<path d="M20.9647 26.4922C20.7897 26.4922 20.6147 26.4672 20.4397 26.4256C19.923 26.2839 19.4897 25.9589 19.2147 25.5006L19.1147 25.3339C18.623 24.4839 17.948 24.4839 17.4563 25.3339L17.3647 25.4922C17.0897 25.9589 16.6563 26.2922 16.1397 26.4256C15.6147 26.5672 15.073 26.4922 14.6147 26.2172L13.1813 25.3922C12.673 25.1006 12.3063 24.6256 12.148 24.0506C11.998 23.4756 12.073 22.8839 12.3647 22.3756C12.6063 21.9506 12.673 21.5672 12.5313 21.3256C12.3897 21.0839 12.0313 20.9422 11.5397 20.9422C10.323 20.9422 9.33133 19.9506 9.33133 18.7339V17.2672C9.33133 16.0506 10.323 15.0589 11.5397 15.0589C12.0313 15.0589 12.3897 14.9172 12.5313 14.6756C12.673 14.4339 12.6147 14.0506 12.3647 13.6256C12.073 13.1172 11.998 12.5172 12.148 11.9506C12.298 11.3756 12.6647 10.9006 13.1813 10.6089L14.623 9.7839C15.5647 9.22556 16.8063 9.55056 17.373 10.5089L17.473 10.6756C17.9647 11.5256 18.6397 11.5256 19.1313 10.6756L19.223 10.5172C19.7897 9.55056 21.0313 9.22556 21.9813 9.79223L23.4147 10.6172C23.923 10.9089 24.2897 11.3839 24.448 11.9589C24.598 12.5339 24.523 13.1256 24.2313 13.6339C23.9897 14.0589 23.923 14.4422 24.0647 14.6839C24.2063 14.9256 24.5647 15.0672 25.0563 15.0672C26.273 15.0672 27.2647 16.0589 27.2647 17.2756V18.7422C27.2647 19.9589 26.273 20.9506 25.0563 20.9506C24.5647 20.9506 24.2063 21.0922 24.0647 21.3339C23.923 21.5756 23.9813 21.9589 24.2313 22.3839C24.523 22.8922 24.6063 23.4922 24.448 24.0589C24.298 24.6339 23.9313 25.1089 23.4147 25.4006L21.973 26.2256C21.6563 26.4006 21.3147 26.4922 20.9647 26.4922ZM18.2897 23.4089C19.0313 23.4089 19.723 23.8756 20.198 24.7006L20.2897 24.8589C20.3897 25.0339 20.5563 25.1589 20.7563 25.2089C20.9563 25.2589 21.1563 25.2339 21.323 25.1339L22.7647 24.3006C22.9813 24.1756 23.148 23.9672 23.2147 23.7172C23.2813 23.4672 23.248 23.2089 23.123 22.9922C22.648 22.1756 22.5897 21.3339 22.9563 20.6922C23.323 20.0506 24.0813 19.6839 25.0313 19.6839C25.5647 19.6839 25.9897 19.2589 25.9897 18.7256V17.2589C25.9897 16.7339 25.5647 16.3006 25.0313 16.3006C24.0813 16.3006 23.323 15.9339 22.9563 15.2922C22.5897 14.6506 22.648 13.8089 23.123 12.9922C23.248 12.7756 23.2813 12.5172 23.2147 12.2672C23.148 12.0172 22.9897 11.8172 22.773 11.6839L21.3313 10.8589C20.973 10.6422 20.498 10.7672 20.2813 11.1339L20.1897 11.2922C19.7147 12.1172 19.023 12.5839 18.2813 12.5839C17.5397 12.5839 16.848 12.1172 16.373 11.2922L16.2813 11.1256C16.073 10.7756 15.6063 10.6506 15.248 10.8589L13.8063 11.6922C13.5897 11.8172 13.423 12.0256 13.3563 12.2756C13.2897 12.5256 13.323 12.7839 13.448 13.0006C13.923 13.8172 13.9813 14.6589 13.6147 15.3006C13.248 15.9422 12.4897 16.3089 11.5397 16.3089C11.0063 16.3089 10.5813 16.7339 10.5813 17.2672V18.7339C10.5813 19.2589 11.0063 19.6922 11.5397 19.6922C12.4897 19.6922 13.248 20.0589 13.6147 20.7006C13.9813 21.3422 13.923 22.1839 13.448 23.0006C13.323 23.2172 13.2897 23.4756 13.3563 23.7256C13.423 23.9756 13.5813 24.1756 13.798 24.3089L15.2397 25.1339C15.4147 25.2422 15.623 25.2672 15.8147 25.2172C16.0147 25.1672 16.1813 25.0339 16.2897 24.8589L16.3813 24.7006C16.8563 23.8839 17.548 23.4089 18.2897 23.4089Z" fill="#7A83A2" stroke="#7A83A2" stroke-width="0.3"/>
<rect x="0.789673" y="0.500244" width="35" height="35" rx="14.5" stroke="#EBEEF7"/>
</svg>
