<svg width="123" height="51" viewBox="0 0 123 51" fill="none" xmlns="http://www.w3.org/2000/svg">
<g clip-path="url(#clip0_105_1153)">
<path d="M32.8236 37.6199C32.1468 35.6936 31.1317 32.1809 29.2141 31.3877C27.2966 30.5945 26.1686 29.3481 25.943 28.6682C25.8303 28.1016 26.0558 26.6286 26.1686 25.8354C26.1686 25.6088 26.3942 25.3821 26.7326 25.3821C27.1838 25.3821 27.9734 25.3821 29.4397 25.6088C32.2596 26.062 31.1317 24.5889 32.9364 24.5889C34.4027 24.5889 34.5155 22.3227 34.5155 21.4162C34.5155 21.3029 34.6283 21.3029 34.6283 21.4162C35.0795 22.096 36.0947 23.9091 36.4331 24.7023C36.4331 24.7023 37.6738 24.8156 38.4634 25.4954C38.4634 25.4954 41.7345 22.3227 42.4112 22.5493C43.088 22.7759 43.088 24.1357 42.7496 25.2688C42.4112 26.2886 41.5089 28.6682 42.4112 29.8013C43.2008 30.9345 45.0055 32.9741 46.6975 33.8806C47.3743 34.2205 47.7126 34.5605 48.051 34.9004C49.5174 34.9004 50.6453 33.654 50.6453 32.1809V18.47C50.6453 16.997 49.4046 15.7505 47.9382 15.7505H34.8539V2.71951C34.8539 1.24644 33.6132 0 32.1468 0H18.3857C16.9194 0 15.6786 1.24644 15.6786 2.71951V15.7505H2.7071C1.24075 15.7505 0 16.997 0 18.47V32.2942C0 33.7673 1.24075 35.0137 2.7071 35.0137H4.28624C4.96302 34.1072 5.63979 33.0874 6.20377 31.9543C8.91087 26.7419 9.70044 28.1016 10.6028 26.2886C11.618 24.4756 11.054 22.5493 12.4075 21.6428C13.7611 20.7363 15.1146 25.7221 15.3402 24.3623C15.453 23.4558 16.581 22.7759 17.3706 22.436C17.5962 22.3227 17.8217 22.5493 17.7089 22.7759C17.3706 23.4558 17.145 24.5889 18.3857 24.9289C20.1905 25.3821 22.7848 27.7617 23.2359 28.6682C23.5743 29.3481 24.5895 30.3679 25.0407 30.7078C25.1535 30.8212 25.2663 30.9345 25.2663 31.1611C25.2663 31.7277 25.2663 32.8608 24.2511 33.4274C22.7848 34.2205 23.4615 35.2404 21.6568 35.0137C20.98 34.9004 19.9649 35.3537 18.9497 36.0336C16.9194 37.3933 15.6786 39.6596 15.6786 42.0392V48.0447C15.6786 49.5178 16.9194 50.7643 18.3857 50.7643H32.1468C33.6132 50.7643 34.8539 49.5178 34.8539 48.0447V47.4782C34.8539 44.7587 34.4027 42.0392 33.5004 39.5463C33.162 38.7531 32.9364 38.0732 32.8236 37.6199Z" fill="#365ED7"/>
</g>
<path d="M66.5604 19.5V16.0176L66.8592 16.8232L62.948 10.4041H64.3384L67.6259 15.8227H66.8722L70.1727 10.4041H71.4591L67.5609 16.8232L67.8468 16.0176V19.5H66.5604ZM76.4903 19.604C75.7973 19.604 75.1519 19.487 74.5542 19.2531C73.9651 19.0192 73.454 18.6944 73.0209 18.2786C72.5877 17.8541 72.2499 17.3603 72.0073 16.7972C71.7648 16.2342 71.6435 15.6191 71.6435 14.9521C71.6435 14.285 71.7648 13.67 72.0073 13.1069C72.2499 12.5438 72.5877 12.0544 73.0209 11.6386C73.454 11.2141 73.9651 10.8849 74.5542 10.651C75.1432 10.4171 75.7886 10.3002 76.4903 10.3002C77.1833 10.3002 77.82 10.4171 78.4004 10.651C78.9895 10.8763 79.5006 11.2011 79.9337 11.6256C80.3755 12.0414 80.7134 12.5308 80.9473 13.0939C81.1898 13.657 81.3111 14.2764 81.3111 14.9521C81.3111 15.6278 81.1898 16.2471 80.9473 16.8102C80.7134 17.3733 80.3755 17.8671 79.9337 18.2916C79.5006 18.7074 78.9895 19.0322 78.4004 19.2661C77.82 19.4913 77.1833 19.604 76.4903 19.604ZM76.4903 18.4475C76.9927 18.4475 77.4562 18.3609 77.8807 18.1876C78.3138 18.0143 78.6863 17.7718 78.9982 17.4599C79.3187 17.1394 79.5656 16.7669 79.7388 16.3424C79.9207 15.918 80.0117 15.4545 80.0117 14.9521C80.0117 14.4496 79.9207 13.9862 79.7388 13.5617C79.5656 13.1372 79.3187 12.7691 78.9982 12.4572C78.6863 12.1367 78.3138 11.8898 77.8807 11.7165C77.4562 11.5433 76.9927 11.4567 76.4903 11.4567C75.9792 11.4567 75.5071 11.5433 75.0739 11.7165C74.6495 11.8898 74.277 12.1367 73.9564 12.4572C73.6359 12.7691 73.3847 13.1372 73.2028 13.5617C73.0295 13.9862 72.9429 14.4496 72.9429 14.9521C72.9429 15.4545 73.0295 15.918 73.2028 16.3424C73.3847 16.7669 73.6359 17.1394 73.9564 17.4599C74.277 17.7718 74.6495 18.0143 75.0739 18.1876C75.5071 18.3609 75.9792 18.4475 76.4903 18.4475ZM87.0654 19.604C85.87 19.604 84.9301 19.2618 84.2457 18.5774C83.5614 17.8931 83.2192 16.8925 83.2192 15.5758V10.4041H84.5186V15.5238C84.5186 16.5373 84.7395 17.278 85.1813 17.7458C85.6318 18.2136 86.2641 18.4475 87.0784 18.4475C87.9014 18.4475 88.5338 18.2136 88.9756 17.7458C89.426 17.278 89.6513 16.5373 89.6513 15.5238V10.4041H90.9117V15.5758C90.9117 16.8925 90.5695 17.8931 89.8852 18.5774C89.2095 19.2618 88.2696 19.604 87.0654 19.604ZM93.5757 19.5V10.4041H97.1231C97.92 10.4041 98.6001 10.5298 99.1631 10.781C99.7262 11.0322 100.159 11.396 100.463 11.8725C100.766 12.3489 100.917 12.9163 100.917 13.5747C100.917 14.2331 100.766 14.8005 100.463 15.2769C100.159 15.7447 99.7262 16.1042 99.1631 16.3554C98.6001 16.6067 97.92 16.7323 97.1231 16.7323H94.2904L94.8751 16.1345V19.5H93.5757ZM99.6569 19.5L97.344 16.1995H98.7343L101.073 19.5H99.6569ZM94.8751 16.2645L94.2904 15.6278H97.0841C97.9157 15.6278 98.5438 15.4502 98.9682 15.095C99.4014 14.7312 99.6179 14.2244 99.6179 13.5747C99.6179 12.925 99.4014 12.4226 98.9682 12.0674C98.5438 11.7122 97.9157 11.5346 97.0841 11.5346H94.2904L94.8751 10.8849V16.2645ZM64.438 40.5V28.3722H67.2447V38.213H73.326V40.5H64.438ZM80.5818 40.7079C79.6231 40.7079 78.7338 40.552 77.9137 40.2401C77.1052 39.9283 76.4006 39.4893 75.8 38.9234C75.2109 38.3574 74.7489 37.6933 74.4139 36.931C74.0905 36.1686 73.9288 35.337 73.9288 34.4361C73.9288 33.5352 74.0905 32.7036 74.4139 31.9412C74.7489 31.1789 75.2167 30.5148 75.8173 29.9488C76.4179 29.3828 77.1225 28.9439 77.931 28.6321C78.7395 28.3202 79.6174 28.1643 80.5645 28.1643C81.5232 28.1643 82.401 28.3202 83.1979 28.6321C84.0065 28.9439 84.7053 29.3828 85.2943 29.9488C85.8949 30.5148 86.3627 31.1789 86.6977 31.9412C87.0326 32.692 87.2001 33.5236 87.2001 34.4361C87.2001 35.337 87.0326 36.1744 86.6977 36.9483C86.3627 37.7106 85.8949 38.3747 85.2943 38.9407C84.7053 39.4951 84.0065 39.9283 83.1979 40.2401C82.401 40.552 81.5289 40.7079 80.5818 40.7079ZM80.5645 38.317C81.1073 38.317 81.604 38.2246 82.0545 38.0398C82.5165 37.855 82.9207 37.5893 83.2672 37.2428C83.6138 36.8963 83.8794 36.4863 84.0642 36.0127C84.2606 35.5391 84.3588 35.0136 84.3588 34.4361C84.3588 33.8586 84.2606 33.333 84.0642 32.8595C83.8794 32.3859 83.6138 31.9759 83.2672 31.6294C82.9323 31.2829 82.5338 31.0172 82.0718 30.8324C81.6098 30.6476 81.1073 30.5552 80.5645 30.5552C80.0216 30.5552 79.5192 30.6476 79.0572 30.8324C78.6067 31.0172 78.2082 31.2829 77.8617 31.6294C77.5152 31.9759 77.2438 32.3859 77.0474 32.8595C76.8626 33.333 76.7702 33.8586 76.7702 34.4361C76.7702 35.0021 76.8626 35.5276 77.0474 36.0127C77.2438 36.4863 77.5094 36.8963 77.8444 37.2428C78.1909 37.5893 78.5952 37.855 79.0572 38.0398C79.5192 38.2246 80.0216 38.317 80.5645 38.317ZM95.1655 40.7079C94.2068 40.7079 93.3232 40.5578 92.5147 40.2574C91.7177 39.9456 91.0189 39.5067 90.4183 38.9407C89.8293 38.3747 89.3672 37.7106 89.0323 36.9483C88.7089 36.186 88.5472 35.3486 88.5472 34.4361C88.5472 33.5236 88.7089 32.6862 89.0323 31.9239C89.3672 31.1616 89.835 30.4974 90.4357 29.9315C91.0363 29.3655 91.7408 28.9324 92.5494 28.6321C93.3579 28.3202 94.2472 28.1643 95.2175 28.1643C96.2917 28.1643 97.2561 28.3433 98.1108 28.7014C98.9771 29.0594 99.7048 29.5792 100.294 30.2607L98.492 31.9239C98.0531 31.4619 97.5737 31.1212 97.054 30.9017C96.5342 30.6707 95.9682 30.5552 95.3561 30.5552C94.767 30.5552 94.2299 30.6476 93.7448 30.8324C93.2597 31.0172 92.8381 31.2829 92.4801 31.6294C92.1335 31.9759 91.8621 32.3859 91.6658 32.8595C91.481 33.333 91.3886 33.8586 91.3886 34.4361C91.3886 35.0021 91.481 35.5218 91.6658 35.9954C91.8621 36.4689 92.1335 36.8848 92.4801 37.2428C92.8381 37.5893 93.2539 37.855 93.7275 38.0398C94.2126 38.2246 94.7439 38.317 95.3214 38.317C95.8758 38.317 96.4129 38.2304 96.9327 38.0571C97.464 37.8723 97.978 37.5662 98.4747 37.1389L100.069 39.1659C99.4102 39.6626 98.6421 40.0438 97.7643 40.3094C96.898 40.5751 96.0318 40.7079 95.1655 40.7079ZM97.5044 38.8021V34.2455H100.069V39.1659L97.5044 38.8021ZM108.566 40.7079C107.608 40.7079 106.718 40.552 105.898 40.2401C105.09 39.9283 104.385 39.4893 103.785 38.9234C103.196 38.3574 102.734 37.6933 102.399 36.931C102.075 36.1686 101.913 35.337 101.913 34.4361C101.913 33.5352 102.075 32.7036 102.399 31.9412C102.734 31.1789 103.201 30.5148 103.802 29.9488C104.403 29.3828 105.107 28.9439 105.916 28.6321C106.724 28.3202 107.602 28.1643 108.549 28.1643C109.508 28.1643 110.386 28.3202 111.183 28.6321C111.991 28.9439 112.69 29.3828 113.279 29.9488C113.88 30.5148 114.347 31.1789 114.682 31.9412C115.017 32.692 115.185 33.5236 115.185 34.4361C115.185 35.337 115.017 36.1744 114.682 36.9483C114.347 37.7106 113.88 38.3747 113.279 38.9407C112.69 39.4951 111.991 39.9283 111.183 40.2401C110.386 40.552 109.514 40.7079 108.566 40.7079ZM108.549 38.317C109.092 38.317 109.589 38.2246 110.039 38.0398C110.501 37.855 110.905 37.5893 111.252 37.2428C111.598 36.8963 111.864 36.4863 112.049 36.0127C112.245 35.5391 112.343 35.0136 112.343 34.4361C112.343 33.8586 112.245 33.333 112.049 32.8595C111.864 32.3859 111.598 31.9759 111.252 31.6294C110.917 31.2829 110.518 31.0172 110.056 30.8324C109.594 30.6476 109.092 30.5552 108.549 30.5552C108.006 30.5552 107.504 30.6476 107.042 30.8324C106.591 31.0172 106.193 31.2829 105.846 31.6294C105.5 31.9759 105.228 32.3859 105.032 32.8595C104.847 33.333 104.755 33.8586 104.755 34.4361C104.755 35.0021 104.847 35.5276 105.032 36.0127C105.228 36.4863 105.494 36.8963 105.829 37.2428C106.176 37.5893 106.58 37.855 107.042 38.0398C107.504 38.2246 108.006 38.317 108.549 38.317Z" fill="#29304B"/>
<defs>
<clipPath id="clip0_105_1153">
<rect width="51" height="51" fill="white"/>
</clipPath>
</defs>
</svg>
