<svg width="6" height="11" viewBox="0 0 6 11" fill="none" xmlns="http://www.w3.org/2000/svg">
<path d="M1.09541 10.1491C0.993511 10.1491 0.891613 10.1115 0.811166 10.0311C0.655637 9.87556 0.655637 9.61813 0.811166 9.4626L4.30793 5.96587C4.56535 5.70844 4.56535 5.29012 4.30793 5.03269L0.811166 1.53597C0.655637 1.38044 0.655637 1.12301 0.811166 0.967477C0.966696 0.811948 1.22412 0.811948 1.37965 0.967477L4.87641 4.4642C5.14993 4.73772 5.30546 5.10777 5.30546 5.49928C5.30546 5.89078 5.1553 6.26084 4.87641 6.53435L1.37965 10.0311C1.29921 10.1062 1.19731 10.1491 1.09541 10.1491Z" fill="#29304B" stroke="#29304B" stroke-width="0.5"/>
</svg>
