<svg width="6" height="11" viewBox="0 0 6 11" fill="none" xmlns="http://www.w3.org/2000/svg">
<path d="M4.90459 0.85092C5.00649 0.85092 5.10839 0.888462 5.18883 0.968908C5.34436 1.12444 5.34436 1.38187 5.18883 1.5374L1.69207 5.03413C1.43465 5.29156 1.43465 5.70988 1.69207 5.96731L5.18883 9.46403C5.34436 9.61956 5.34436 9.87699 5.18883 10.0325C5.0333 10.1881 4.77588 10.1881 4.62035 10.0325L1.12359 6.5358C0.850068 6.26228 0.694538 5.89223 0.694538 5.50072C0.694538 5.10922 0.844704 4.73916 1.12359 4.46565L4.62035 0.968908C4.70079 0.893826 4.80269 0.85092 4.90459 0.85092Z" fill="#29304B" stroke="#29304B" stroke-width="0.5"/>
</svg>
