<?xml version="1.0" encoding="utf-8"?><svg viewBox="0 0 502.66 502.66" xmlns="http://www.w3.org/2000/svg" xmlns:xlink="http://www.w3.org/1999/xlink"><style>:root>svg{display:none}:root>svg:target{display:block}</style><svg viewBox="0 0 50 51" id="disease-1" xmlns="http://www.w3.org/2000/svg"><path d="M0 25.5C0 11.709 11.209.5 25 .5c13.838 0 25 11.209 25 25 0 5.627-1.891 10.84-5.028 15.037-.6-1.245-1.383-2.86-2.352-4.843-1.476-3.045-3.137-6.458-3.367-7.058l-1.8-4.796c-1.706-4.613-3.412-9.18-5.12-13.792-.184-.554-.83-2.26-2.859-2.675-1.983-.415-3.828.876-4.29 2.998-.276 1.338-.553 2.629-.83 3.967l-.369 1.752h-2.26c-4.474 0-7.426 2.168-8.625 6.32H8.118c-2.26-.277-4.428 1.199-4.428 3.736 0 5.396 3.828 10.378 8.902 12.038 1.2.416 2.491.6 3.783.646h4.105c.23 1.338.553 3.736.876 5.766.37 2.583.692 4.52.877 5.766C9.733 48.978 0 38.369 0 25.5z"/></svg><svg viewBox="0 0 51 51" id="disease-2" xmlns="http://www.w3.org/2000/svg"><path d="M25.727.5C12.317.5 1.395 11.053.75 24.325a1.54 1.54 0 01.691-.138c.046 0 3.042.276 7.788-.415 4.332-.645 6.452-3.548 6.544-3.687l.138-.138c.646-.645 1.152-1.383 1.751-2.212.139-.23.323-.415.461-.645 2.166-2.95 4.839-5.484 8.25-7.788.322-.184 1.243-.83 2.257-.461.645.277 1.106.876 1.337 1.797l.138.507a25 25 0 01.553 2.673c.092.783.368 1.244 1.06 1.751 2.719 2.028 5.576 4.655 6.267 8.71.276 1.659.922 2.81 2.12 3.779.23.184.46.414.645.599.138-.046.276-.093.46-.093.738 0 1.337.6 1.337 1.337 0 .599-.368 1.06-.921 1.244 0 .738-.185 1.52-.553 2.258-1.153 2.35-3.18 3.963-6.13 4.885-1.151.369-2.304.645-3.456.922-.553.138-1.152.276-1.705.414-.645.415-3.456 2.305-4.101 5.208-.461 2.074-1.198 4.055-1.797 5.53.599.046 1.244.092 1.889.092 13.825 0 24.977-11.198 24.977-24.977S39.506.5 25.727.5z"/></svg><svg viewBox="0 0 51 51" id="disease-3" xmlns="http://www.w3.org/2000/svg"><g clip-path="url(#ca)"><circle cx="25.5" cy="25.5" r="25"/><path d="M-5.178 36.346h41.622c.582 0 1.067-.2 1.455-.7.388-.5.68-1.2.582-1.8-.485-5.3-3.59-11-8.15-12.2.291-1.2.486-2.5.486-3.9 0-2.2-.777-4-2.329-5.1-1.65-1.2-3.88-1.5-6.112-.7-2.329.8-4.075 2.4-4.754 4.4-.291.8-.388 1.7-.388 2.5-2.523-1.7-5.337-2.6-8.15-2.6-5.821 0-11.06 3.4-14.068 9.2-.194.3-.388.8-.776 1.7-.874 2.1-1.359 4.4-1.553 6.7 0 .7.194 1.3.582 1.8.485.4.97.7 1.553.7zm30.173-22.9c.97 0 1.747.3 2.426.8.97.7 1.455 2 1.455 3.5s-.29 3-.776 4.3c-.097.3-.097.6.097.9.194.3.485.4.776.5 4.075.3 7.083 5.8 7.568 10.6 0 .1 0 .3-.097.3h-41.72c-.096-.1-.193-.2-.096-.3.097-2.1.582-4.2 1.358-6.1 0 0 .582-1.3.68-1.6 2.716-5.1 7.276-8.1 12.418-8.1 3.202 0 6.403 1.3 8.926 3.7.776.7 1.358.4 1.552.2.388-.3.485-1 .194-1.4a4.449 4.449 0 01-.485-3.8c.485-1.4 1.843-2.6 3.59-3.2.873-.2 1.552-.3 2.134-.3z"/><circle cx="29" cy="28" r="1.5"/></g><defs><clipPath id="ca"><rect x=".5" y=".5" width="50" height="50" rx="25"/></clipPath></defs></svg><svg viewBox="0 0 51 51" id="disease-4" xmlns="http://www.w3.org/2000/svg"><g clip-path="url(#da)"><circle cx="25.25" cy="25.5" r="25"/><path d="M43.69 59.523c-8.67 0-18.93-1.587-25.036-7.816-5.007-5.007-6.473-12.335-4.64-21.617l-3.91-1.465c-.488-.123-.854-.611-.854-1.222 0-.488.366-.977.855-1.099l3.664-1.221-3.298-3.054c-.366-.366-.488-.977-.244-1.343.244-.488.733-.733 1.221-.733l5.496.489c1.588-3.42 6.229-10.626 17.22-8.55 3.176.611 7.45 2.077 10.137 5.985 2.199 3.175 2.565 6.473 2.443 9.282 2.565 1.588 5.374 2.565 8.06 2.809 4.03.366 7.94-.733 11.48-3.175.49-.367.978-.245 1.466 0 .367.366.611.854.367 1.343-2.076 5.496-5.496 10.015-9.893 13.19a24.409 24.409 0 01-12.213 4.519c.733 3.053 2.199 5.374 4.275 6.961 2.198 1.71 5.251 2.565 8.915 2.565.611 0 1.1.488 1.222 1.1.122.61-.367 1.22-.977 1.343-.367.244-7.328 1.71-15.755 1.71zM14.258 27.525l1.588.61c.61.245.855.856.733 1.466-2.076 9.038-.733 15.877 3.786 20.396 7.45 7.572 22.35 7.45 31.265 6.595-.977-.488-1.954-.977-2.809-1.71-2.809-2.198-4.763-5.495-5.496-9.892a.95.95 0 01.245-.977c.244-.244.61-.489.855-.489 4.518-.122 8.67-1.587 12.335-4.152 3.053-2.198 5.618-5.13 7.45-8.671-3.054 1.343-6.351 1.954-9.649 1.71-3.42-.367-6.717-1.588-9.77-3.542-.367-.244-.61-.61-.489-1.1.245-3.663-.366-6.106-1.954-8.426-2.32-3.176-5.984-4.52-8.67-5.008-9.893-1.954-13.68 4.885-14.779 7.817-.244.488-.732.854-1.221.732l-2.809-.244 2.198 2.076c.367.245.489.733.367 1.222-.122.366-.367.732-.855.855l-2.32.732z"/><path d="M25.492 23.741c-1.71 0-3.176-1.343-3.176-3.175 0-1.832 1.344-3.175 3.176-3.175 1.71 0 3.175 1.343 3.175 3.175 0 1.832-1.465 3.175-3.175 3.175zm0-3.786c-.367 0-.733.367-.733.733 0 .367.366.733.733.733.366 0 .733-.366.733-.733 0-.366-.367-.733-.733-.733z"/></g><defs><clipPath id="da"><rect x=".25" y=".5" width="50" height="50" rx="25"/></clipPath></defs></svg><svg viewBox="0 0 50 51" id="disease-5" xmlns="http://www.w3.org/2000/svg"><g clip-path="url(#ea)"><circle cx="25" cy="25.5" r="25"/><path d="M-5.678 36.346h41.622c.582 0 1.067-.2 1.455-.7.388-.5.68-1.2.582-1.8-.485-5.3-3.59-11-8.15-12.2.291-1.2.486-2.5.486-3.9 0-2.2-.777-4-2.329-5.1-1.65-1.2-3.88-1.5-6.112-.7-2.329.8-4.075 2.4-4.754 4.4-.291.8-.388 1.7-.388 2.5-2.523-1.7-5.337-2.6-8.15-2.6-5.821 0-11.06 3.4-14.068 9.2-.194.3-.388.8-.776 1.7-.874 2.1-1.359 4.4-1.553 6.7 0 .7.194 1.3.582 1.8.485.4.97.7 1.553.7zm30.173-22.9c.97 0 1.747.3 2.426.8.97.7 1.455 2 1.455 3.5s-.29 3-.776 4.3c-.097.3-.097.6.097.9.194.3.485.4.776.5 4.075.3 7.083 5.8 7.568 10.6 0 .1 0 .3-.097.3h-41.72c-.096-.1-.193-.2-.096-.3.097-2.1.582-4.2 1.358-6.1 0 0 .582-1.3.68-1.6 2.716-5.1 7.276-8.1 12.418-8.1 3.202 0 6.403 1.3 8.926 3.7.776.7 1.358.4 1.552.2.388-.3.485-1 .194-1.4a4.449 4.449 0 01-.485-3.8c.485-1.4 1.843-2.6 3.59-3.2.873-.2 1.552-.3 2.134-.3z"/><circle cx="28.5" cy="28" r="1.5"/></g><defs><clipPath id="ea"><rect y=".5" width="50" height="50" rx="25"/></clipPath></defs></svg><svg viewBox="0 0 51 51" id="disease-6" xmlns="http://www.w3.org/2000/svg"><g clip-path="url(#fa)"><circle cx="25.334" cy="25.5" r="25"/><path d="M-1.372 70.085a.628.628 0 01-.634-.529c-1.426-6.288-1.743-12.048-.95-17.067.686-4.28 2.165-8.085 4.437-11.308 1.955-2.748 4.438-5.126 7.291-6.817 2.114-1.268 4.386-2.114 6.076-2.325.898-.106 1.48-.423 1.796-1.004.74-1.48-.475-4.28-1.003-5.231-.159-.264-.106-.529.053-.74.105-.159 2.958-3.382 7.343-3.593 2.853-.159 5.654 1.057 8.295 3.54 2.325 2.167 3.804 6.605 4.068 11.89.265 5.706-.95 11.413-3.487 16.063-2.536 4.703-6.181 8.085-10.83 10.04-5.284 2.22-11.782 2.483-19.232.845-1.69 3.277-2.536 5.813-2.589 5.866-.105.211-.37.37-.634.37zm18.334-44.493c.21.423.475 1.057.74 1.797.58 1.744.58 3.17.105 4.227-.476.951-1.427 1.533-2.8 1.744-1.955.264-8.031 2.272-12.47 8.613-2.165 3.065-3.539 6.71-4.226 10.78-.687 4.333-.528 9.141.476 14.425.687-1.743 1.902-4.333 3.54-7.08 3.804-6.394 8.03-10.357 12.627-11.731a.634.634 0 01.792.423.634.634 0 01-.422.792C9.564 51.326 5.18 57.508 2.432 62.528c7.027 1.533 13.103 1.269 18.07-.845 4.385-1.85 7.819-5.02 10.196-9.459 2.378-4.438 3.593-9.881 3.329-15.377-.212-4.86-1.638-9.088-3.646-10.99-2.377-2.273-4.808-3.33-7.29-3.224-3.012.265-5.337 2.167-6.13 2.96z"/><path d="M30.856 26.129a.61.61 0 01-.634-.634c0-.37.264-.634.634-.687 5.865-.106 9.299-1.268 10.038-3.276.529-1.532-.475-3.382-1.426-4.703a16.456 16.456 0 00-1.638-1.902c-1.004 2.853-3.434 5.02-7.132 6.446-3.065 1.163-5.865 1.374-5.97 1.374-.37 0-.688-.264-.688-.581 0-.37.265-.687.582-.687.105 0 10.672-.793 12.204-7.873.053-.212.212-.423.423-.476a.865.865 0 01.634.106c.211.211 5.6 4.967 4.227 8.771-.951 2.642-4.65 3.963-11.254 4.122zM16.907 32.463c-.317 0-.58-.212-.634-.582a1.33 1.33 0 00-.58-.95c-1.427-1.058-4.914-.74-6.13-.53-.21.054-.475-.052-.58-.21a.562.562 0 01-.106-.634c.687-2.008 2.219-3.488 4.385-4.228 1.585-.528 2.959-.528 3.011-.528.37 0 .634.317.634.687 0 .37-.317.634-.686.634-.159 0-3.963-.106-5.654 2.853 1.585-.158 4.386-.211 5.918.898.634.476 1.004 1.057 1.11 1.797.052.37-.212.687-.582.74-.053.053-.106.053-.106.053z"/></g><defs><clipPath id="fa"><rect x=".333" y=".5" width="50" height="50" rx="25"/></clipPath></defs></svg><svg viewBox="0 0 51 51" id="disease-7" xmlns="http://www.w3.org/2000/svg"><rect x=".333" y=".5" width="50" height="50" rx="24"/><path d="M24.273 44.18c.369 2.307.738 4.983.968 6.32h.139c7.15 0 13.56-2.998 18.127-7.795a281.644 281.644 0 00-2.86-5.904c-1.983-4.105-3.228-6.596-3.46-7.288l-1.798-4.75c-1.707-4.613-3.413-9.18-5.12-13.792-.323-.83-.6-.923-.876-1.015-.692-.139-1.061.415-1.2.969-.276 1.291-.553 2.629-.83 3.966l-.415 2.122c-.046.138-.046.323-.092.461l-.046.23a1.33 1.33 0 01-1.292 1.016h-3.275c-3.46 0-5.489 1.614-6.227 4.981a2.144 2.144 0 01-.138.415l-.046.093c-.185.507-.692.784-1.2.784H8.96c-.184.784-.692 1.845-2.214 2.122v.092l.092.415c.093.369.185.784.277 1.153 1.2 4.29 5.166 7.334 9.64 7.426h5.165c.6 0 1.153.415 1.292 1.015.046.369.369 2.537 1.06 6.965zm-3.09-21.401c0 .784-.646 1.384-1.384 1.384a1.388 1.388 0 01-1.384-1.384c0-.784.646-1.384 1.384-1.384.738 0 1.383.6 1.383 1.384z"/><path d="M.333 25.5c0-13.791 11.209-25 25-25 13.838 0 25 11.209 25 25 0 5.627-1.89 10.84-5.027 15.037-.6-1.245-1.384-2.86-2.353-4.843-1.476-3.045-3.136-6.458-3.367-7.058l-1.799-4.796c-1.706-4.613-3.413-9.18-5.12-13.792-.184-.554-.83-2.26-2.86-2.675-1.983-.415-3.828.876-4.289 2.998-.277 1.338-.553 2.629-.83 3.967l-.37 1.752h-2.26c-4.474 0-7.426 2.168-8.625 6.32H8.452c-2.26-.277-4.428 1.199-4.428 3.736 0 5.396 3.828 10.378 8.902 12.038 1.199.416 2.49.6 3.782.646h4.105c.23 1.338.554 3.736.877 5.766.369 2.583.691 4.52.876 5.766C10.066 48.978.333 38.369.333 25.5z"/></svg><svg viewBox="0 0 51 51" id="disease-8" xmlns="http://www.w3.org/2000/svg"><path d="M25.644.5C12.234.5 1.312 11.053.667 24.325c.184-.092.414-.138.691-.138.046 0 3.041.276 7.788-.415 4.332-.645 6.452-3.548 6.544-3.687l.138-.138c.645-.645 1.152-1.383 1.751-2.212.138-.23.323-.415.461-.645 2.166-2.95 4.839-5.484 8.249-7.788.322-.184 1.244-.83 2.258-.461.645.277 1.106.876 1.336 1.797l.139.507c.23.876.414 1.751.553 2.673.092.783.368 1.244 1.06 1.751 2.718 2.028 5.576 4.655 6.267 8.71.276 1.659.921 2.81 2.12 3.779.23.184.46.414.645.599.138-.046.276-.093.46-.093.738 0 1.337.6 1.337 1.337 0 .599-.369 1.06-.922 1.244a5.09 5.09 0 01-.553 2.258c-1.152 2.35-3.18 3.963-6.129 4.885-1.152.369-2.304.645-3.456.922-.553.138-1.152.276-1.705.414-.645.415-3.456 2.305-4.101 5.208-.461 2.074-1.198 4.055-1.798 5.53a24.7 24.7 0 001.89.092c13.825 0 24.977-11.198 24.977-24.977S39.422.5 25.644.5z"/><g clip-path="url(#ha)"><path d="M28.684 37.136a2.24 2.24 0 01.323-.139c.645-.184 1.336-.322 1.981-.506 1.106-.277 2.212-.507 3.226-.876 2.305-.737 3.733-1.89 4.609-3.594.23-.415.322-.784.276-1.152v-.139c0-.138.046-.415-.553-.875-1.705-1.383-2.673-3.088-3.087-5.392-.553-3.18-2.95-5.346-5.254-7.05-1.244-.922-1.935-2.074-2.12-3.55-.092-.644-.276-1.428-.507-2.257v-.092c-2.995 2.073-5.345 4.332-7.28 6.958-.139.184-.277.415-.461.6-.6.829-1.199 1.658-1.936 2.442-.46.645-3.18 3.963-8.249 4.654-5.069.737-8.295.46-8.433.46a.743.743 0 01-.415-.137c.553 11.705 9.125 21.29 20.369 23.364.599-1.383 1.428-3.503 1.935-5.76 1.06-4.379 5.392-6.867 5.576-6.96zm3.733-12.857c.783 0 1.383.645 1.383 1.382 0 .784-.646 1.383-1.383 1.383a1.386 1.386 0 01-1.382-1.383c0-.737.599-1.382 1.382-1.382z"/></g><defs><clipPath id="ha"><path transform="translate(.851 11.514)" d="M0 0h38.249v38.341H0z"/></clipPath></defs></svg><svg viewBox="0 0 8 14" id="faq" xmlns="http://www.w3.org/2000/svg"><path d="M4.554 9.46h-1.96c.006-.545.052-1.002.14-1.371.088-.375.235-.715.44-1.02.21-.304.49-.627.835-.966.27-.258.512-.501.73-.73.216-.234.389-.48.518-.738.129-.264.193-.566.193-.906 0-.369-.061-.682-.184-.94A1.297 1.297 0 004.72 2.2c-.235-.135-.528-.202-.88-.202-.292 0-.568.059-.825.176a1.398 1.398 0 00-.624.527c-.159.235-.244.545-.255.932H.019c.011-.738.187-1.36.527-1.863.34-.504.797-.882 1.371-1.134C2.491.384 3.133.258 3.842.258c.785 0 1.456.135 2.012.404.557.264.982.65 1.275 1.16.299.504.448 1.114.448 1.828 0 .516-.102.985-.307 1.407a5.116 5.116 0 01-.8 1.169 20.6 20.6 0 01-1.064 1.072c-.328.299-.55.624-.668.975a3.849 3.849 0 00-.184 1.187zm-2.136 2.742c0-.316.108-.583.325-.8.217-.222.513-.334.888-.334s.67.112.888.334c.216.217.325.484.325.8 0 .317-.109.586-.325.809-.217.216-.513.325-.888.325s-.671-.109-.888-.325a1.116 1.116 0 01-.325-.809z"/></svg><svg viewBox="0 0 502.664 502.664" id="icon" xmlns="http://www.w3.org/2000/svg"><path d="M153.821 358.226L0 274.337v-46.463l153.821-83.414v54.574L46.636 250.523l107.185 53.431v54.272zm26.273 29.358L282.103 115.08h32.227L212.084 387.584h-31.99zm168.749-29.358v-54.272l107.164-52.999-107.164-52.59v-53.927l153.821 83.522v46.183l-153.821 84.083z"/></svg><svg viewBox="0 0 31 30" id="panels-1" xmlns="http://www.w3.org/2000/svg"><path d="M25.5 25h-20m0-11l8.126-6.5a3 3 0 013.748 0L25.5 14M19 8.5v-2a.5.5 0 01.5-.5H22a.5.5 0 01.5.5v5M7.5 25V12.5m16 12.5V12.5M18.5 25v-5c0-1.414 0-2.121-.44-2.56-.439-.44-1.146-.44-2.56-.44-1.414 0-2.121 0-2.56.44-.44.439-.44 1.146-.44 2.56v5"/></svg><svg viewBox="0 0 31 30" id="panels-2" xmlns="http://www.w3.org/2000/svg"><path d="M5.5 17c0-3.771 0-5.657 1.172-6.828C7.843 9 9.729 9 13.5 9h4c3.771 0 5.657 0 6.828 1.172C25.5 11.343 25.5 13.229 25.5 17c0 3.771 0 5.657-1.172 6.828C23.157 25 21.271 25 17.5 25h-4c-3.771 0-5.657 0-6.828-1.172C5.5 22.657 5.5 20.771 5.5 17zm14-8c0-1.886 0-2.828-.586-3.414C18.328 5 17.386 5 15.5 5c-1.886 0-2.828 0-3.414.586C11.5 6.172 11.5 7.114 11.5 9M17 17h-3m1.5-1.5v3"/><circle cx="15.5" cy="17" r="4"/></svg><svg viewBox="0 0 31 30" id="panels-3" xmlns="http://www.w3.org/2000/svg"><path d="M23.812 15.647l.517-1.932c.604-2.255.907-3.382.68-4.358a4 4 0 00-1.162-2.011c-.731-.685-1.859-.987-4.114-1.591-2.255-.605-3.383-.907-4.358-.68a4 4 0 00-2.011 1.162c-.587.626-.893 1.543-1.348 3.209l-.244.905-.517 1.932c-.605 2.255-.907 3.382-.68 4.358a4 4 0 001.162 2.011c.731.685 1.859.987 4.114 1.591 2.032.545 3.149.844 4.064.731.1-.012.198-.03.294-.052a4 4 0 002.011-1.16c.685-.732.987-1.86 1.592-4.115z"/><path d="M19.915 20.974a4 4 0 01-1.068 1.678c-.731.685-1.859.987-4.114 1.591s-3.383.907-4.358.679a4 4 0 01-2.011-1.161c-.685-.731-.988-1.859-1.592-4.114l-.517-1.932c-.605-2.255-.907-3.383-.68-4.358a4 4 0 011.162-2.011c.731-.685 1.859-.988 4.114-1.592.426-.114.813-.218 1.165-.309"/></svg><svg viewBox="0 0 31 30" id="panels-4" xmlns="http://www.w3.org/2000/svg"><path d="M17 5s2.334.212 5.303 3.182c2.97 2.97 3.182 5.303 3.182 5.303m-7.778-4.949s.99.282 2.475 1.767c1.485 1.485 1.768 2.475 1.768 2.475M18.6 18.027l-.543-.516.544.516zm.456-.48l.544.517-.544-.516zm2.417-.335l-.374.65.374-.65zm1.91 1.1l-.374.65.374-.65zm.539 3.446l.543.517-.543-.517zm-1.42 1.496l-.545-.517.544.517zm-1.326.71l.074.745-.074-.746zm-9.86-4.489l.543-.516-.544.516zm-4.813-9.51l-.749.041.749-.04zm6.474 1.538l.544.517-.544-.517zm.157-2.81l.613-.433-.613.433zm-1.26-1.783l-.613.433.612-.433zM8.76 6.609l.544.516-.544-.516zM7.191 8.26l-.543-.516.544.516zm7.372 7.795l.544-.517-.544.517zm4.582 2.488l.455-.48-1.088-1.033-.455.48 1.088 1.033zm1.954-.682l1.91 1.1.748-1.3-1.91-1.1-.748 1.3zm2.279 3.38l-1.42 1.495 1.087 1.034 1.42-1.496-1.087-1.033zm-2.275 1.975c-1.435.141-5.18.02-9.244-4.258l-1.087 1.033c4.429 4.663 8.654 4.898 10.478 4.717l-.147-1.492zm-9.244-4.258c-3.876-4.081-4.526-7.523-4.607-9.033l-1.498.08c.1 1.85.884 5.634 5.018 9.986l1.087-1.033zm1.376-6.637l.286-.302-1.087-1.033-.287.302 1.088 1.033zm.512-4.062l-1.261-1.783-1.225.866 1.26 1.783 1.226-.866zm-5.53-2.168L6.649 7.745l1.088 1.033 1.57-1.653-1.088-1.033zm4.474 5.713a23.45 23.45 0 00-.546-.515v.002a.082.082 0 01-.004.003l-.006.006a.854.854 0 00-.044.052 1.594 1.594 0 00-.23.427c-.098.275-.15.639-.084 1.093.13.892.715 2.091 2.242 3.7l1.088-1.034c-1.428-1.503-1.78-2.428-1.846-2.884-.032-.22 0-.335.013-.372l.008-.019a.297.297 0 01-.028.037l-.01.01a4.297 4.297 0 01-.004.005l-.003.003-.001.001s-.002.002-.545-.515zm1.328 4.767c1.523 1.604 2.673 2.234 3.55 2.377.451.073.816.014 1.092-.095a1.52 1.52 0 00.421-.25.922.922 0 00.057-.054l.003-.003.001-.002s.002-.001-.542-.518c-.544-.516-.543-.517-.543-.518l.002-.001.002-.003a.241.241 0 00.005-.005l.01-.01a.446.446 0 01.037-.032c.01-.006.009-.004-.004.001-.02.008-.11.04-.3.009-.402-.066-1.27-.42-2.703-1.929l-1.088 1.033zM12.486 6.477C11.472 5.043 9.444 4.8 8.218 6.092l1.087 1.033c.523-.55 1.444-.507 1.956.218l1.225-.866zM7.252 9.926c-.022-.4.152-.8.484-1.148L6.648 7.745c-.536.564-.943 1.347-.894 2.261l1.498-.08zm14.705 12.812c-.279.293-.57.45-.854.479l.147 1.492c.747-.073 1.352-.472 1.795-.939l-1.088-1.032zM13.521 12.02c.968-1.019 1.036-2.613.226-3.76l-1.225.866c.422.597.357 1.392-.088 1.86l1.087 1.034zm9.488 6.942c.821.473.982 1.635.369 2.28l1.087 1.033c1.305-1.374.925-3.673-.707-4.613l-.749 1.3zm-3.409-.898c.385-.406.986-.497 1.499-.202l.748-1.3c-1.099-.632-2.46-.45-3.335.47l1.088 1.032z"/></svg><svg viewBox="0 0 24 24" id="panels-5" xmlns="http://www.w3.org/2000/svg"><path d="M17.54 9.06c-1.77 0-3.21-1.44-3.21-3.21s1.44-3.21 3.21-3.21 3.21 1.44 3.21 3.21-1.44 3.21-3.21 3.21zm0-4.93c-.94 0-1.71.77-1.71 1.71s.77 1.71 1.71 1.71 1.71-.77 1.71-1.71-.77-1.71-1.71-1.71zM6.46 9.06c-1.77 0-3.21-1.44-3.21-3.21s1.44-3.21 3.21-3.21 3.21 1.44 3.21 3.21-1.44 3.21-3.21 3.21zm0-4.93c-.94 0-1.71.77-1.71 1.71s.77 1.71 1.71 1.71 1.71-.77 1.71-1.71-.76-1.71-1.71-1.71zm11.08 17.24c-1.77 0-3.21-1.44-3.21-3.21s1.44-3.21 3.21-3.21 3.21 1.44 3.21 3.21-1.44 3.21-3.21 3.21zm0-4.93c-.94 0-1.71.77-1.71 1.71s.77 1.71 1.71 1.71 1.71-.77 1.71-1.71-.77-1.71-1.71-1.71zM6.46 21.37c-1.77 0-3.21-1.44-3.21-3.21s1.44-3.21 3.21-3.21 3.21 1.44 3.21 3.21-1.44 3.21-3.21 3.21zm0-4.93c-.94 0-1.71.77-1.71 1.71s.77 1.71 1.71 1.71 1.71-.77 1.71-1.71-.76-1.71-1.71-1.71z"/></svg><svg viewBox="0 0 5 6" id="point" xmlns="http://www.w3.org/2000/svg"><circle cx="2.5" cy="3" r="2.5"/></svg><svg viewBox="0 0 17 17" id="search" xmlns="http://www.w3.org/2000/svg"><path d="M7.792 14.698A6.91 6.91 0 01.885 7.792 6.91 6.91 0 017.792.885a6.91 6.91 0 016.906 6.907 6.91 6.91 0 01-6.906 6.906zm0-12.75a5.85 5.85 0 00-5.844 5.844 5.85 5.85 0 005.844 5.843 5.85 5.85 0 005.843-5.843 5.85 5.85 0 00-5.843-5.844zm6.488 14.195a1.16 1.16 0 01-.163-.014c-.333-.043-.935-.27-1.275-1.282-.177-.532-.113-1.063.177-1.467.29-.403.78-.63 1.339-.63.722 0 1.29.276 1.544.765.255.489.184 1.112-.22 1.714-.502.758-1.048.914-1.402.914zm-.425-1.63c.12.37.29.553.404.567.113.015.326-.12.545-.439.206-.304.22-.524.17-.623-.05-.1-.248-.206-.616-.206-.22 0-.383.071-.475.192-.085.12-.099.304-.028.51z"/></svg><svg viewBox="0 0 36 36" id="social-1" xmlns="http://www.w3.org/2000/svg"><rect width="35.072" height="35.072" rx="15"/><g clip-path="url(#ra)"><path d="M27.072 17.537a9.536 9.536 0 10-19.072 0c0 4.76 3.487 8.704 8.046 9.42v-6.664h-2.421v-2.756h2.421v-2.101c0-2.39 1.424-3.71 3.602-3.71 1.043 0 2.135.186 2.135.186v2.346H20.58c-1.184 0-1.554.736-1.554 1.49v1.789h2.645l-.423 2.756h-2.222v6.664c4.56-.716 8.046-4.66 8.046-9.42z"/></g><defs><clipPath id="ra"><path transform="translate(8 8)" d="M0 0h19.072v19.072H0z"/></clipPath></defs></svg><svg viewBox="0 0 36 36" id="social-2" xmlns="http://www.w3.org/2000/svg"><rect x=".072" width="35.072" height="35.072" rx="15"/><g clip-path="url(#sa)"><path d="M14.072 25.285c7.196 0 11.133-5.963 11.133-11.132 0-.168-.004-.34-.012-.507a7.947 7.947 0 001.952-2.026 7.713 7.713 0 01-2.246.615 3.933 3.933 0 001.72-2.164 7.866 7.866 0 01-2.483.95 3.917 3.917 0 00-6.67 3.568 11.114 11.114 0 01-8.064-4.086 3.917 3.917 0 001.21 5.222 3.917 3.917 0 01-1.772-.488v.048a3.912 3.912 0 003.14 3.837 3.89 3.89 0 01-1.766.067 3.92 3.92 0 003.654 2.72 7.847 7.847 0 01-5.796 1.618 11.102 11.102 0 006 1.758z"/></g><defs><clipPath id="sa"><path transform="translate(8.072 8)" d="M0 0h19.072v19.072H0z"/></clipPath></defs></svg><svg viewBox="0 0 36 36" id="social-3" xmlns="http://www.w3.org/2000/svg"><rect x=".145" width="35.072" height="35.072" rx="15"/><g clip-path="url(#ta)"><path d="M17.681 9.718c2.548 0 2.85.01 3.852.055.931.041 1.434.198 1.77.328.442.171.763.38 1.094.712.336.335.54.652.712 1.095.13.335.287.842.328 1.77.044 1.005.055 1.307.055 3.851 0 2.548-.01 2.85-.055 3.852-.041.931-.198 1.434-.328 1.77a2.95 2.95 0 01-.712 1.094c-.335.336-.651.54-1.095.712-.335.13-.842.287-1.77.328-1.005.044-1.307.055-3.851.055-2.548 0-2.85-.01-3.852-.055-.931-.041-1.434-.198-1.77-.328a2.948 2.948 0 01-1.094-.712 2.934 2.934 0 01-.712-1.095c-.13-.335-.287-.842-.328-1.77-.044-1.005-.055-1.307-.055-3.851 0-2.548.01-2.85.055-3.852.041-.931.198-1.434.328-1.77a2.95 2.95 0 01.712-1.094c.335-.336.652-.54 1.095-.712.335-.13.842-.287 1.77-.328 1.001-.044 1.303-.055 3.851-.055zm0-1.718c-2.589 0-2.913.011-3.93.056-1.013.045-1.71.209-2.313.443a4.65 4.65 0 00-1.691 1.103 4.673 4.673 0 00-1.103 1.688c-.235.607-.399 1.3-.443 2.313-.045 1.02-.056 1.345-.056 3.934 0 2.588.011 2.913.056 3.93.044 1.013.208 1.71.443 2.313.246.63.57 1.162 1.103 1.69a4.663 4.663 0 001.687 1.1c.607.235 1.3.398 2.313.443 1.017.045 1.341.056 3.93.056 2.59 0 2.913-.011 3.93-.056 1.014-.045 1.71-.209 2.314-.443a4.663 4.663 0 001.687-1.1 4.661 4.661 0 001.099-1.687c.235-.607.398-1.3.443-2.313.045-1.017.056-1.34.056-3.93 0-2.589-.011-2.913-.056-3.93-.044-1.013-.208-1.71-.443-2.313a4.467 4.467 0 00-1.091-1.695 4.662 4.662 0 00-1.688-1.099c-.607-.235-1.3-.398-2.313-.443C20.595 8.01 20.27 8 17.68 8z"/><path d="M17.681 12.638a4.9 4.9 0 000 9.797 4.9 4.9 0 000-9.797zm0 8.076a3.178 3.178 0 11.001-6.356 3.178 3.178 0 01-.001 6.356zm6.236-8.27a1.144 1.144 0 11-2.288 0 1.144 1.144 0 012.288 0z"/></g><defs><clipPath id="ta"><path transform="translate(8.145 8)" d="M0 0h19.072v19.072H0z"/></clipPath></defs></svg><svg viewBox="0 0 36 36" id="social-4" xmlns="http://www.w3.org/2000/svg"><rect x=".217" width="35.072" height="35.072" rx="15"/><g clip-path="url(#ua)"><path fill-rule="evenodd" clip-rule="evenodd" d="M27.29 17.537a9.536 9.536 0 11-19.073 0 9.536 9.536 0 1119.073 0zm-9.195-2.497c-.928.386-2.781 1.185-5.561 2.396-.452.18-.688.355-.71.527-.036.29.327.404.822.56l.209.066c.487.158 1.142.344 1.482.35.309.008.654-.12 1.034-.381 2.598-1.753 3.938-2.64 4.023-2.659.06-.013.141-.03.197.02.056.049.05.143.044.168-.036.154-1.462 1.48-2.2 2.166-.23.214-.394.366-.427.4a7.755 7.755 0 01-.224.222c-.453.436-.792.763.018 1.297.39.257.701.47 1.012.68.34.232.678.463 1.117.75.111.073.218.149.322.223.395.282.75.535 1.188.494.255-.023.518-.263.652-.977.316-1.69.937-5.348 1.08-6.856a1.68 1.68 0 00-.015-.376.402.402 0 00-.136-.258.627.627 0 00-.37-.11c-.358.005-.909.197-3.557 1.298z"/></g><defs><clipPath id="ua"><path transform="translate(8.217 8)" d="M0 0h19.072v19.072H0z"/></clipPath></defs></svg><svg viewBox="0 0 37 36" id="social-5" xmlns="http://www.w3.org/2000/svg"><path d="M18.29 21.125a3.126 3.126 0 010-6.25 3.126 3.126 0 010 6.25zm0-5A1.878 1.878 0 0016.415 18c0 1.034.841 1.875 1.875 1.875A1.878 1.878 0 0020.165 18a1.878 1.878 0 00-1.875-1.875z"/><path d="M20.965 26.492a2.27 2.27 0 01-.525-.066 2.047 2.047 0 01-1.225-.925l-.1-.167c-.492-.85-1.167-.85-1.659 0l-.091.158c-.275.467-.709.8-1.225.934a1.951 1.951 0 01-1.525-.209l-1.434-.825a2.207 2.207 0 01-.816-3.016c.241-.425.308-.809.166-1.05-.141-.242-.5-.384-.991-.384a2.212 2.212 0 01-2.209-2.208v-1.467c0-1.216.992-2.208 2.209-2.208.491 0 .85-.142.991-.383.142-.242.084-.625-.166-1.05a2.218 2.218 0 01-.217-1.675 2.15 2.15 0 011.033-1.342l1.442-.825c.942-.558 2.183-.233 2.75.725l.1.167c.492.85 1.167.85 1.658 0l.092-.159c.567-.966 1.808-1.291 2.758-.725l1.434.825a2.208 2.208 0 01.816 3.017c-.241.425-.308.808-.166 1.05.141.242.5.383.991.383 1.217 0 2.209.992 2.209 2.209v1.466a2.212 2.212 0 01-2.209 2.209c-.491 0-.85.141-.991.383-.142.242-.084.625.166 1.05a2.18 2.18 0 01.217 1.675 2.15 2.15 0 01-1.033 1.342l-1.442.825a2.074 2.074 0 01-1.008.266zM18.29 23.41c.741 0 1.433.467 1.908 1.292l.092.158c.1.175.266.3.466.35.2.05.4.025.567-.075l1.442-.833a.964.964 0 00.358-1.309c-.475-.816-.533-1.658-.167-2.3.367-.641 1.125-1.008 2.075-1.008a.953.953 0 00.959-.958V17.26a.958.958 0 00-.959-.958c-.95 0-1.708-.367-2.075-1.009-.366-.641-.308-1.483.167-2.3a.953.953 0 00.092-.725.975.975 0 00-.442-.583l-1.442-.825a.767.767 0 00-1.05.275l-.091.158c-.475.825-1.167 1.292-1.909 1.292-.741 0-1.433-.467-1.908-1.292l-.092-.166a.765.765 0 00-1.033-.267l-1.442.833a.964.964 0 00-.358 1.309c.475.816.533 1.658.167 2.3-.367.641-1.125 1.008-2.075 1.008a.953.953 0 00-.959.958v1.467c0 .525.425.958.959.958.95 0 1.708.367 2.075 1.009.366.641.308 1.483-.167 2.3a.953.953 0 00-.092.725c.067.25.225.45.442.583l1.442.825a.737.737 0 00.575.083.79.79 0 00.475-.358l.091-.158c.475-.817 1.167-1.292 1.909-1.292z"/><rect x=".79" y=".5" width="35" height="35" rx="14.5"/></svg></svg>